<?xml version="1.0" encoding="utf-8"?>
<!-- Generator: Adobe Illustrator 27.5.0, SVG Export Plug-In . SVG Version: 6.00 Build 0)  -->
<svg version="1.1" id="Man" xmlns="http://www.w3.org/2000/svg" xmlns:xlink="http://www.w3.org/1999/xlink" x="0px" y="0px"
	 viewBox="0 0 575.105 915.591" style="enable-background:new 0 0 575.105 915.591;" xml:space="preserve">
<rect style="fill:#FFFFFF;" width="575.105" height="0"/>
<rect style="fill:#FFFFFF;" width="575.105" height="915.591"/>
<g>
	<g>
		<path style="fill:#FFBF94;" d="M393.059,188.56c0,0,1.954,35.774,5.498,42.853c2.038,4.071-48.689,0.698-48.689,0.698
			l-4.156-25.223l17.411,6.154L393.059,188.56z"/>
	</g>
	<g>
		<path style="fill:#EBEBEB;" d="M431.009,254.638c0,0,37.192,49.08,31.083,105.895c-6.109,56.815-60.679,61.703-60.679,61.703
			l-10.773-31.157l15.859-77.586L431.009,254.638z"/>
	</g>
	<g>
		<path style="fill:#FFBF94;" d="M392.753,424.374c0,0,20.693-0.911,34.366-10.391c13.673-9.479-34.366-40.225-34.366-40.225
			s-4.887-14.753-8.247,10.906c-3.36,25.659-3.36,22.647-3.36,22.647L392.753,424.374z"/>
	</g>
	<g>
		<polygon style="fill:#E3E3E3;" points="440.968,409.846 390.64,362.732 390.64,371.285 429.846,417.175 		"/>
	</g>
	<g>
		<path style="fill:#0A5E77;" d="M314.047,443.957c0,0,32.509,274.466,9.753,400.007c3.68,3.681,17.225,1.54,17.225,1.54
			s52.645-145.072,15.99-192.953c12.462-50.462,26.385-118.752,27.469-163.058C385.567,445.188,346.556,405.803,314.047,443.957z"/>
	</g>
	<g>
		<path style="fill:#0A5E77;" d="M406.595,434.25c0,0,20.11,39.302,6.882,83.288c-4.031,28.094,10.739,37.877,4.629,132.569
			c27.055,18.881,22.604,136.846,22.569,195.324c-6.214,0-12.98,1.381-12.98,1.381s-49.362-246.773-60.499-276.94
			c-11.137-30.167-21.856-124.542-9.2-130.083C370.652,434.25,406.595,434.25,406.595,434.25z"/>
	</g>
	<g>
		<path style="fill:#F8F8F8;" d="M413.83,238.349c0,0,43.375,28.617,28.713,72.651c-14.662,44.034-30.546,60.529-34.822,80.689
			c-4.277,20.16,0,45.819,0,45.819s-23.726,23.933-93.421,6.774c-8.602-52.592,4.227-112.769,3.616-148.66
			c-0.611-35.891-8.862-38.617,12.105-50.349C347.815,235.316,383.284,223.687,413.83,238.349z"/>
	</g>
	<g>
		<path style="fill:#121233;" d="M341.024,845.504c0,0,4.383,10.686,3.161,12.316c-1.222,1.629-47.244,0-47.244,0
			s0.407-11.582,4.48-11.697c4.073-0.115,22.379-2.159,22.379-2.159L341.024,845.504z"/>
	</g>
	<g>
		<path style="fill:#121233;" d="M441.622,845.504c0,0,4.383,10.686,3.161,12.316s-47.244,0-47.244,0s0.407-11.582,4.48-11.697
			c4.073-0.115,22.378-2.159,22.378-2.159L441.622,845.504z"/>
	</g>
	<g>
		<path style="fill:#1F2B27;" d="M406.615,428.548c0,0-41.106,19.86-94.053,2.306c0,8.716,1.484,15.828,1.484,15.828
			s74.736,18.317,93.674-9.174C406.615,428.548,406.615,428.548,406.615,428.548z"/>
	</g>
	<g>
		<path style="fill:#EBEBEB;" d="M355.883,318.21c-9.522,35.158-30.997,60.841-39.098,71.751
			c-25.758,34.688-104.923-15.033-116.329-19.279c-10.268-3.823-1.271-8.584-1.271-8.584s49.279-3.961,71.508,0.661
			c20.274-2.262,3.553-113.366,68.087-109.728C370.206,254.803,359.738,303.976,355.883,318.21z"/>
	</g>
	<g>
		<path style="fill:#E3E3E3;" d="M397.539,221.507c0,0,3.164,12.085,5.043,12.634c1.879,0.55-26.846,14.544-60.945,5.584l6.509-10.5
			C348.145,229.225,389.977,229.195,397.539,221.507z"/>
	</g>
	<g>
		<path style="fill:#FFBF94;" d="M393.93,207.278c0,0-10.325-30.187-2.514-51.152c7.811-20.966,22.927-35.858,9.197-45.555
			c-13.73-9.698-72.934-17.727-78.752-7.623c-5.819,10.104-18.36,31.982-16.573,39.121c1.787,7.139,2.184,19.785,0.399,25.368
			c-1.784,5.583,6.621,17.431,9.691,26.941c3.07,9.51,7.919,19.8,7.943,28.401c0.025,8.602,6.704,11.428,6.704,11.428
			s14.353-6.138,27.523-12.048C370.719,216.248,393.93,207.278,393.93,207.278z"/>
	</g>
	<g>
		<path style="fill:#121233;" d="M394.794,201.324c0,0-20.704,3.989-35.153,0.059c-4.305-1.171-7.857-16.946-10.625-24.001
			c4.438-2.303,10.578-13.118,6.309-22.522c-4.269-9.404-20.129-2.6-22.076,0.021c-1.947,2.621-6.297-26.973-6.297-26.973
			s-35.26-13.098-35.586-19.022c-0.326-5.924,22.723-35.052,30.963-36.144c8.24-1.092,76.626,15.821,79.502,33.291
			c4.656,1.782,13.485,6.563,10.889,14.299C410.123,128.067,382.964,186.644,394.794,201.324z"/>
	</g>
	<g>
		<path style="fill:#121233;" d="M318.557,138.648c0,0-12.093-0.476-12.67-1.555c-0.578-1.08-3.303-9.014,0.096-10.885
			s10.64,5.42,12.518,5.526C320.379,131.84,318.557,138.648,318.557,138.648z"/>
	</g>
	<g>
		<path style="fill:#FFFFFF;" d="M321.844,155.565c0,0-9.096-9.895-16.048-7.334c-2.179,0.803,0.903,17.616,0.902,17.344
			C306.697,165.304,324.519,164.368,321.844,155.565z"/>
	</g>
	<g>
		<path style="fill:#121233;" d="M305.27,150.501c0,0,5.783,1.011,6.195,8.163c0.413,7.152-5.047,5.936-5.047,5.936
			S304.635,150.702,305.27,150.501z"/>
	</g>
	<g>
		<path style="fill:#121233;" d="M336.548,166.404c0,0,24.316,44.276,17.641,57.256c-6.675,12.98-25.971,14.867-28.517,12.528
			c-2.546-2.339-13.637-45.613-15.246-50.052c2.527-1.382,22.698-13.123,22.775-19.653
			C334.685,166.685,336.548,166.404,336.548,166.404z"/>
	</g>
	<g>
		<path style="fill:#EA9F75;" d="M349.918,172.087l-1.042-0.639c3.256-5.306,4.137-9.333,2.619-11.97
			c-2.035-3.534-7.854-3.449-7.891-3.44l-0.029-1.221c0.257-0.014,6.583-0.111,8.979,4.052
			C354.313,161.923,353.425,166.371,349.918,172.087z"/>
	</g>
	<g>
		<path style="fill:#0E5776;" d="M405.166,519.982c0,0-15.01,5.083-21.854,5.694c0,0-2.252,14.306-5.392,28.005
			C374.779,567.379,396.448,526.091,405.166,519.982z"/>
	</g>
	<g>
		<path style="fill:#121233;" d="M321.133,155.337c-0.214-0.34-5.366-8.281-15.229-6.505l-0.215-1.203
			c10.67-1.917,16.421,6.966,16.479,7.056L321.133,155.337z"/>
	</g>
	<g>
		<path style="fill:#13444C;" d="M372.243,585.79l-1.191-0.279c3.56-15.247,6.023-30.323,7.819-41.332
			c1.912-11.708,2.878-17.401,3.948-18.863l0.129-0.178l0.213-0.053c7.223-1.842,22.041-5.694,22.041-5.694l0.308,1.183
			c0,0-14.508,3.771-21.813,5.635c-0.929,1.688-2.124,9.001-3.62,18.168C378.277,555.401,375.811,570.502,372.243,585.79z"/>
	</g>
	<g>
		<path style="fill:#13444C;" d="M338.182,500.706c-9.035-3.116-17.143-26.275-17.483-27.26l1.154-0.399
			c0.082,0.235,8.251,23.579,16.728,26.503L338.182,500.706z"/>
	</g>
	<g>
		<path style="fill:#13444C;" d="M412.857,654.137l-0.651-1.034l4.061-2.558l-9.369-0.898l0.117-1.217l9.757,0.936
			c0.47,0.047,0.845,0.372,0.954,0.832c0.11,0.461-0.078,0.921-0.478,1.174L412.857,654.137z"/>
	</g>
	<g>
		<path style="fill:#13444C;" d="M356.349,653.345c-3.371-0.893-8.706-1.403-8.759-1.407l0.114-1.217
			c0.223,0.021,5.487,0.525,8.958,1.445L356.349,653.345z"/>
	</g>
	<g>
		<g>
			<g>
				<path style="fill:#0A5E77;" d="M402.668,362.348l-1.78,5.802c-0.6,1.929-1.184,3.863-1.735,5.805
					c-1.123,3.877-2.239,7.754-3.149,11.68c-0.522,1.947-0.941,3.915-1.391,5.878c-0.385,1.974-0.766,3.951-1.084,5.936
					c-0.175,0.991-0.341,1.984-0.436,2.984c-0.098,0.999-0.271,1.997-0.308,3c-0.059,1.002-0.148,2.008-0.183,3.015
					c0.029,1.004,0.043,2.013,0.048,3.03c-0.727-4.007-0.491-8.125-0.06-12.158c0.44-4.048,1.288-8.031,2.219-11.98
					c1.017-3.93,2.122-7.836,3.444-11.669C399.573,369.838,400.989,366.038,402.668,362.348z"/>
			</g>
		</g>
	</g>
	<g>
		<g>
			<g>
				<path style="fill:#0A5E77;" d="M402.581,234.141c-2.008,1.691-4.356,2.941-6.74,4.036c-1.184,0.582-2.442,0.976-3.665,1.468
					c-1.247,0.418-2.507,0.803-3.767,1.189c-5.08,1.429-10.346,2.037-15.59,2.341c-5.259,0.27-10.519-0.056-15.738-0.574
					c-2.6-0.354-5.191-0.763-7.779-1.164c-2.56-0.573-5.124-1.105-7.666-1.713c2.599,0.335,5.178,0.747,7.76,1.116
					c2.595,0.279,5.185,0.581,7.777,0.818c5.195,0.318,10.4,0.65,15.587,0.288c5.186-0.199,10.365-0.815,15.414-2.026
					c1.254-0.327,2.511-0.653,3.759-1.011c1.222-0.429,2.482-0.774,3.675-1.286C398.046,236.725,400.413,235.605,402.581,234.141z"
					/>
			</g>
		</g>
	</g>
	<g>
		<g>
			<g>
				<path style="fill:#0A5E77;" d="M441.688,272.779c1.42,3.122,2.386,6.441,3.079,9.803c0.41,1.672,0.576,3.387,0.864,5.083
					c0.128,1.713,0.382,3.423,0.407,5.144c0.255,6.883-0.569,13.791-2.245,20.479c-1.672,6.708-4.493,13.052-7.668,19.161
					c-1.76,2.955-3.471,5.976-5.296,8.852l-2.697,4.361l-2.545,4.45c-6.808,11.844-12.276,24.488-15.7,37.714
					c-3.393,13.238-4.309,27.059-3.271,40.724c-0.708-6.817-0.973-13.695-0.623-20.56c0.385-6.861,1.378-13.696,2.974-20.39
					c1.588-6.7,3.849-13.224,6.469-19.581c2.596-6.374,5.723-12.515,9.08-18.512l2.584-4.462l2.735-4.369
					c1.864-2.903,3.544-5.841,5.309-8.764c3.186-6.015,5.945-12.281,7.737-18.865c1.766-6.578,2.684-13.394,2.558-20.219
					c0.026-1.707-0.177-3.406-0.255-5.113c-0.237-1.689-0.352-3.402-0.711-5.074C443.881,279.275,443.016,275.941,441.688,272.779z"
					/>
			</g>
		</g>
	</g>
	<g>
		<path style="fill:#FFBF94;" d="M284.398,402.049c-5.157-0.327-10.56-1.252-16.03-2.586c-29.57-7.158-61.046-26.223-67.918-28.781
			c-10.26-3.824-1.265-8.587-1.265-8.587s42.444-3.416,66.312-0.204c1.864,0.245,3.592,0.544,5.198,0.871
			c1.102-0.122,2.096-0.572,2.994-1.293L284.398,402.049z"/>
	</g>
	<g>
		<polygon style="fill:#E3E3E3;" points="284.439,402.185 268.572,402.185 268.367,399.463 265.496,361.892 265.169,357.564 
			272.654,357.564 273.688,361.47 284.398,402.049 		"/>
	</g>
	<g>
		<path style="fill:#FFFFFF;" d="M319.35,193.818c0,0,9.092-2.948,10.226-6.35c1.134-3.402-3.35,15.135-7.459,14.258
			C322.118,200.169,322.505,195.859,319.35,193.818z"/>
	</g>
	<g>
		<polygon style="fill:#FDB803;" points="182.646,357.564 174.615,362.728 175.465,364.259 184.395,359.071 		"/>
	</g>
	<g>
		<path style="fill:#FFBF94;" d="M202.884,361.83c0,0-1.62-5.383-10.806-10.158c-9.185-4.775-10.83,7.825-8.788,12.928
			c2.041,5.103,14.682,4.938,14.682,4.938S199.482,361.83,202.884,361.83z"/>
	</g>
	<g>
		<path style="fill:#FDB803;" d="M189.073,353.203c0,0,0.851,2.211,1.871,2.211s17.861-10.716,17.861-10.716l-2.041-2.722
			L189.073,353.203z"/>
	</g>
	<g>
		<path style="fill:#FFBF94;" d="M201.774,361.821c0,0,0.567-4.876-0.51-6.124c-1.077-1.247-6.191-2.492-6.191-2.492
			L201.774,361.821z"/>
	</g>
</g>
<g>
	<g>
		<path style="fill:#E5B391;" d="M78.262,375.152c0,0-19.11,12.198-23.205,9.419C50.962,381.791,69.097,376.368,78.262,375.152z"/>
		<path style="fill:#E5B391;" d="M72.087,335.902c0,0-22.426-3.323-23.695-8.107C47.122,323.01,64.37,330.809,72.087,335.902z"/>
		<path style="fill:#E5B391;" d="M110.604,300.98c0,0-12.729-18.76-10.065-22.932C103.202,273.876,109.132,291.852,110.604,300.98z"
			/>
		<path style="fill:#E5B391;" d="M157.124,294.972c0,0-6.232-21.798-2.398-24.929C158.559,266.912,158.577,285.84,157.124,294.972z"
			/>
		<path style="fill:#E5B391;" d="M214.016,319.401c0,0,14.864-17.118,19.58-15.615C238.312,305.29,222.461,315.636,214.016,319.401z
			"/>
		<path style="fill:#E5B391;" d="M213.684,354.974c0,0,12.695,0.543,13.681,3.136C228.352,360.702,218.283,357.362,213.684,354.974z
			"/>
		<path style="fill:#E5B391;" d="M115.378,398.538c0,0-0.875,12.676-3.493,13.594C109.268,413.051,112.87,403.073,115.378,398.538z"
			/>
	</g>
</g>
<text transform="matrix(0.9119 -0.4104 0.4104 0.9119 98.551 372.3112)" style="fill:#E5B391; font-family:'ArialMT'; font-size:33.6665px;">WORK</text>
</svg>
