<svg xmlns="http://www.w3.org/2000/svg" xmlns:xlink="http://www.w3.org/1999/xlink" viewBox="0 0 268 351" width="268" height="351" preserveAspectRatio="xMidYMid meet" style="width: 100%; height: 100%; transform: translate3d(0px, 0px, 0px); content-visibility: visible;"><defs><clipPath id="__lottie_element_122"><rect width="268" height="351" x="0" y="0"></rect></clipPath></defs><g clip-path="url(#__lottie_element_122)"><g transform="matrix(1,0,0,1,121.92799377441406,111.75)" opacity="1" style="display: block;"><g opacity="1" transform="matrix(1,0,0,1,65.78600311279297,132.54100036621094)"><path fill="rgb(255,255,255)" fill-opacity="1" d=" M0.0010000000474974513,-57.696998596191406 C0.0010000000474974513,-57.696998596191406 40.4109992980957,92.45800018310547 40.4109992980957,92.45800018310547 C40.4109992980957,92.45800018310547 49.768001556396484,92.45800018310547 49.768001556396484,92.45800018310547 C49.768001556396484,92.45800018310547 0.0010000000474974513,-92.45800018310547 0.0010000000474974513,-92.45800018310547 C0.0010000000474974513,-92.45800018310547 -49.768001556396484,92.45800018310547 -49.768001556396484,92.45800018310547 C-49.768001556396484,92.45800018310547 -40.4109992980957,92.45800018310547 -40.4109992980957,92.45800018310547 C-40.4109992980957,92.45800018310547 0.0010000000474974513,-57.696998596191406 0.0010000000474974513,-57.696998596191406z"></path><path stroke-linecap="butt" stroke-linejoin="miter" fill-opacity="0" stroke-miterlimit="4" stroke="#1e90ff" stroke-opacity="1" stroke-width="1.5" d=" M0.0010000000474974513,-57.696998596191406 C0.0010000000474974513,-57.696998596191406 40.4109992980957,92.45800018310547 40.4109992980957,92.45800018310547 C40.4109992980957,92.45800018310547 49.768001556396484,92.45800018310547 49.768001556396484,92.45800018310547 C49.768001556396484,92.45800018310547 0.0010000000474974513,-92.45800018310547 0.0010000000474974513,-92.45800018310547 C0.0010000000474974513,-92.45800018310547 -49.768001556396484,92.45800018310547 -49.768001556396484,92.45800018310547 C-49.768001556396484,92.45800018310547 -40.4109992980957,92.45800018310547 -40.4109992980957,92.45800018310547 C-40.4109992980957,92.45800018310547 0.0010000000474974513,-57.696998596191406 0.0010000000474974513,-57.696998596191406z"></path></g><g opacity="1" transform="matrix(1,0,0,1,65.78600311279297,61.14400100708008)"><path fill="rgb(255,255,255)" fill-opacity="1" d=" M-12.611000061035156,-11.175000190734863 C-12.611000061035156,-11.175000190734863 12.611000061035156,-11.175000190734863 12.611000061035156,-11.175000190734863 C12.611000061035156,-11.175000190734863 12.611000061035156,11.175000190734863 12.611000061035156,11.175000190734863 C12.611000061035156,11.175000190734863 -12.611000061035156,11.175000190734863 -12.611000061035156,11.175000190734863 C-12.611000061035156,11.175000190734863 -12.611000061035156,-11.175000190734863 -12.611000061035156,-11.175000190734863z"></path><path stroke-linecap="butt" stroke-linejoin="miter" fill-opacity="0" stroke-miterlimit="4" stroke="#1e90ff" stroke-opacity="1" stroke-width="1.5" d=" M-12.611000061035156,-11.175000190734863 C-12.611000061035156,-11.175000190734863 12.611000061035156,-11.175000190734863 12.611000061035156,-11.175000190734863 C12.611000061035156,-11.175000190734863 12.611000061035156,11.175000190734863 12.611000061035156,11.175000190734863 C12.611000061035156,11.175000190734863 -12.611000061035156,11.175000190734863 -12.611000061035156,11.175000190734863 C-12.611000061035156,11.175000190734863 -12.611000061035156,-11.175000190734863 -12.611000061035156,-11.175000190734863z"></path></g><g opacity="1" transform="matrix(1,0,0,1,12,-2.25)"><path fill="#1e90ff" fill-opacity="1" d=" M66.4469985961914,54.5 C66.4469985961914,54.5 41.446998596191406,54.625 41.446998596191406,54.625 C41.446998596191406,54.625 41.321998596191406,64.25 41.321998596191406,64.25 C41.321998596191406,64.25 66.3219985961914,64.25 66.3219985961914,64.25 C66.3219985961914,64.25 66.4469985961914,54.5 66.4469985961914,54.5z"></path></g><g opacity="1" transform="matrix(1,0,0,1,235.66099548339844,48.02799987792969)"><path fill="rgb(255,255,255)" fill-opacity="1" d=" M-235.42599487304688,-9.934000015258789 C-235.42599487304688,-9.934000015258789 -99.58899688720703,-10.194000244140625 -99.58899688720703,-10.194000244140625 C-99.58899688720703,-10.194000244140625 -99.58899688720703,9.362000465393066 -99.58899688720703,9.362000465393066 C-99.58899688720703,9.362000465393066 -235.41099548339844,9.777999877929688 -235.41099548339844,9.777999877929688 C-235.41099548339844,9.777999877929688 -235.42599487304688,-9.934000015258789 -235.42599487304688,-9.934000015258789z"></path><path stroke-linecap="butt" stroke-linejoin="miter" fill-opacity="0" stroke-miterlimit="4" stroke="#1e90ff" stroke-opacity="1" stroke-width="1.5" d=" M-235.42599487304688,-9.934000015258789 C-235.42599487304688,-9.934000015258789 -99.58899688720703,-10.194000244140625 -99.58899688720703,-10.194000244140625 C-99.58899688720703,-10.194000244140625 -99.58899688720703,9.362000465393066 -99.58899688720703,9.362000465393066 C-99.58899688720703,9.362000465393066 -235.41099548339844,9.777999877929688 -235.41099548339844,9.777999877929688 C-235.41099548339844,9.777999877929688 -235.42599487304688,-9.934000015258789 -235.42599487304688,-9.934000015258789z"></path></g></g><g transform="matrix(1,0,0,1,13.605010986328125,-117.25)" opacity="1" style="display: block;"><g opacity="1" transform="matrix(1,0,0,1,10.713000297546387,374.447998046875)"><path stroke-linecap="butt" stroke-linejoin="miter" fill-opacity="0" stroke-miterlimit="10" stroke="#1e90ff" stroke-opacity="1" stroke-width="2" d=" M8.173999786376953,-80.802001953125 C8.173999786376953,-80.802001953125 -8.173999786376953,80.802001953125 -8.173999786376953,80.802001953125"></path></g><g opacity="1" transform="matrix(1,0,0,1,71.06600189208984,374.447998046875)"><path stroke-linecap="butt" stroke-linejoin="miter" fill-opacity="0" stroke-miterlimit="10" stroke="#1e90ff" stroke-opacity="1" stroke-width="2" d=" M-8.173999786376953,-80.802001953125 C-8.173999786376953,-80.802001953125 -0.27900001406669617,-2.750999927520752 -0.27900001406669617,-2.750999927520752 C-0.27900001406669617,-2.750999927520752 8.173999786376953,80.802001953125 8.173999786376953,80.802001953125"></path></g><g opacity="1" transform="matrix(1,0,0,1,0,0)"><path stroke-linecap="butt" stroke-linejoin="miter" fill-opacity="0" stroke-miterlimit="10" stroke="#1e90ff" stroke-opacity="1" stroke-width="2" d=" M10.991999626159668,375.16900634765625 C10.991999626159668,375.16900634765625 71.13800048828125,375.16900634765625 71.13800048828125,375.16900634765625"></path></g><g opacity="1" transform="matrix(1,0,0,1,29.80299949645996,286.99798583984375)"><path fill="rgb(255,255,255)" fill-opacity="1" d=" M26.15999984741211,9.475000381469727 C26.15999984741211,9.475000381469727 -17.81599998474121,9.475000381469727 -17.81599998474121,9.475000381469727 C-22.423999786376953,9.475000381469727 -26.15999984741211,5.678999900817871 -26.15999984741211,0.9959999918937683 C-26.15999984741211,0.9959999918937683 -26.15999984741211,-9.475000381469727 -26.15999984741211,-9.475000381469727 C-26.15999984741211,-9.475000381469727 9.336999893188477,-9.475000381469727 9.336999893188477,-9.475000381469727 C11.003000259399414,-9.475000381469727 12.354999542236328,-8.10200023651123 12.354999542236328,-6.408999919891357 C12.354999542236328,-6.408999919891357 12.354999542236328,-4.021999835968018 12.354999542236328,-4.021999835968018 C12.354999542236328,1.187000036239624 15.61400032043457,5.818999767303467 20.46500015258789,7.500999927520752 C20.46500015258789,7.500999927520752 26.15999984741211,9.475000381469727 26.15999984741211,9.475000381469727z"></path><path stroke-linecap="butt" stroke-linejoin="miter" fill-opacity="0" stroke-miterlimit="4" stroke="#1e90ff" stroke-opacity="1" stroke-width="1" d=" M26.15999984741211,9.475000381469727 C26.15999984741211,9.475000381469727 -17.81599998474121,9.475000381469727 -17.81599998474121,9.475000381469727 C-22.423999786376953,9.475000381469727 -26.15999984741211,5.678999900817871 -26.15999984741211,0.9959999918937683 C-26.15999984741211,0.9959999918937683 -26.15999984741211,-9.475000381469727 -26.15999984741211,-9.475000381469727 C-26.15999984741211,-9.475000381469727 9.336999893188477,-9.475000381469727 9.336999893188477,-9.475000381469727 C11.003000259399414,-9.475000381469727 12.354999542236328,-8.10200023651123 12.354999542236328,-6.408999919891357 C12.354999542236328,-6.408999919891357 12.354999542236328,-4.021999835968018 12.354999542236328,-4.021999835968018 C12.354999542236328,1.187000036239624 15.61400032043457,5.818999767303467 20.46500015258789,7.500999927520752 C20.46500015258789,7.500999927520752 26.15999984741211,9.475000381469727 26.15999984741211,9.475000381469727z"></path></g><g opacity="1" transform="matrix(1,0,0,1,65.73400115966797,298.0790100097656)"><path fill="rgb(255,255,255)" fill-opacity="1" d=" M10.251999855041504,6.510000228881836 C10.251999855041504,6.510000228881836 -4.888000011444092,6.4120001792907715 -4.888000011444092,6.4120001792907715 C-4.888000011444092,6.4120001792907715 -13.937999725341797,-6.52400016784668 -13.937999725341797,-6.52400016784668 C-13.937999725341797,-6.52400016784668 3.7330000400543213,-6.52400016784668 3.7330000400543213,-6.52400016784668 C8.232000350952148,-5.933000087738037 11.123000144958496,-2.0920000076293945 13.041999816894531,2.2300000190734863 C13.937999725341797,4.245999813079834 12.428999900817871,6.52400016784668 10.251999855041504,6.510000228881836z"></path><path stroke-linecap="butt" stroke-linejoin="miter" fill-opacity="0" stroke-miterlimit="4" stroke="#1e90ff" stroke-opacity="1" stroke-width="1" d=" M10.251999855041504,6.510000228881836 C10.251999855041504,6.510000228881836 -4.888000011444092,6.4120001792907715 -4.888000011444092,6.4120001792907715 C-4.888000011444092,6.4120001792907715 -13.937999725341797,-6.52400016784668 -13.937999725341797,-6.52400016784668 C-13.937999725341797,-6.52400016784668 3.7330000400543213,-6.52400016784668 3.7330000400543213,-6.52400016784668 C8.232000350952148,-5.933000087738037 11.123000144958496,-2.0920000076293945 13.041999816894531,2.2300000190734863 C13.937999725341797,4.245999813079834 12.428999900817871,6.52400016784668 10.251999855041504,6.510000228881836z"></path></g><g opacity="1" transform="matrix(1,0,0,1,32.5,291.0539855957031)"><path fill="rgb(255,255,255)" fill-opacity="1" d=" M28.83300018310547,13.854999542236328 C29.448999404907227,13.854999542236328 30.06800079345703,13.664999961853027 30.604999542236328,13.269000053405762 C31.95199966430664,12.272000312805176 32.25,10.355999946594238 31.270000457763672,8.987000465393066 C31.270000457763672,8.987000465393066 28.68899917602539,5.38100004196167 28.68899917602539,5.38100004196167 C26.531999588012695,2.36899995803833 23.055999755859375,0.5699999928474426 19.388999938964844,0.5699999928474426 C19.388999938964844,0.5699999928474426 14.791999816894531,0.5699999928474426 14.791999816894531,0.5699999928474426 C11.180000305175781,0.5699999928474426 7.539999961853027,0.871999979019165 3.9749999046325684,1.465000033378601 C3.9749999046325684,1.465000033378601 -12.664999961853027,4.236999988555908 -12.664999961853027,4.236999988555908 C-15.949000358581543,4.783999919891357 -19.305999755859375,3.867000102996826 -21.875999450683594,1.718999981880188 C-24.44700050354004,-0.42800000309944153 -25.982999801635742,-3.5989999771118164 -26.09000015258789,-6.978000164031982 C-26.09000015258789,-6.978000164031982 -26.18000030517578,-10.810999870300293 -26.18000030517578,-10.810999870300293 C-26.2189998626709,-12.503999710083008 -27.604999542236328,-13.854999542236328 -29.266000747680664,-13.802000045776367 C-30.930999755859375,-13.76200008392334 -32.25,-12.357000350952148 -32.209999084472656,-10.664999961853027 C-32.209999084472656,-10.664999961853027 -32.119998931884766,-6.807000160217285 -32.119998931884766,-6.807000160217285 C-31.95599937438965,-1.6360000371932983 -29.6200008392334,3.187000036239624 -25.70800018310547,6.455999851226807 C-21.795000076293945,9.722999572753906 -16.683000564575195,11.119000434875488 -11.689000129699707,10.288999557495117 C-11.689000129699707,10.288999557495117 4.951000213623047,7.515999794006348 4.951000213623047,7.515999794006348 C8.194999694824219,6.974999904632568 11.505999565124512,6.702000141143799 14.791999816894531,6.702000141143799 C14.791999816894531,6.702000141143799 19.388999938964844,6.702000141143799 19.388999938964844,6.702000141143799 C21.131999969482422,6.702000141143799 22.785999298095703,7.557000160217285 23.81100082397461,8.989999771118164 C23.81100082397461,8.989999771118164 26.391000747680664,12.593999862670898 26.391000747680664,12.593999862670898 C26.981000900268555,13.418999671936035 27.902000427246094,13.854999542236328 28.83300018310547,13.854999542236328z"></path><path stroke-linecap="butt" stroke-linejoin="miter" fill-opacity="0" stroke-miterlimit="4" stroke="#1e90ff" stroke-opacity="1" stroke-width="1" d=" M28.83300018310547,13.854999542236328 C29.448999404907227,13.854999542236328 30.06800079345703,13.664999961853027 30.604999542236328,13.269000053405762 C31.95199966430664,12.272000312805176 32.25,10.355999946594238 31.270000457763672,8.987000465393066 C31.270000457763672,8.987000465393066 28.68899917602539,5.38100004196167 28.68899917602539,5.38100004196167 C26.531999588012695,2.36899995803833 23.055999755859375,0.5699999928474426 19.388999938964844,0.5699999928474426 C19.388999938964844,0.5699999928474426 14.791999816894531,0.5699999928474426 14.791999816894531,0.5699999928474426 C11.180000305175781,0.5699999928474426 7.539999961853027,0.871999979019165 3.9749999046325684,1.465000033378601 C3.9749999046325684,1.465000033378601 -12.664999961853027,4.236999988555908 -12.664999961853027,4.236999988555908 C-15.949000358581543,4.783999919891357 -19.305999755859375,3.867000102996826 -21.875999450683594,1.718999981880188 C-24.44700050354004,-0.42800000309944153 -25.982999801635742,-3.5989999771118164 -26.09000015258789,-6.978000164031982 C-26.09000015258789,-6.978000164031982 -26.18000030517578,-10.810999870300293 -26.18000030517578,-10.810999870300293 C-26.2189998626709,-12.503999710083008 -27.604999542236328,-13.854999542236328 -29.266000747680664,-13.802000045776367 C-30.930999755859375,-13.76200008392334 -32.25,-12.357000350952148 -32.209999084472656,-10.664999961853027 C-32.209999084472656,-10.664999961853027 -32.119998931884766,-6.807000160217285 -32.119998931884766,-6.807000160217285 C-31.95599937438965,-1.6360000371932983 -29.6200008392334,3.187000036239624 -25.70800018310547,6.455999851226807 C-21.795000076293945,9.722999572753906 -16.683000564575195,11.119000434875488 -11.689000129699707,10.288999557495117 C-11.689000129699707,10.288999557495117 4.951000213623047,7.515999794006348 4.951000213623047,7.515999794006348 C8.194999694824219,6.974999904632568 11.505999565124512,6.702000141143799 14.791999816894531,6.702000141143799 C14.791999816894531,6.702000141143799 19.388999938964844,6.702000141143799 19.388999938964844,6.702000141143799 C21.131999969482422,6.702000141143799 22.785999298095703,7.557000160217285 23.81100082397461,8.989999771118164 C23.81100082397461,8.989999771118164 26.391000747680664,12.593999862670898 26.391000747680664,12.593999862670898 C26.981000900268555,13.418999671936035 27.902000427246094,13.854999542236328 28.83300018310547,13.854999542236328z"></path></g></g><g transform="matrix(0.9999915957450867,0.004095388110727072,-0.004095388110727072,0.9999915957450867,114.46577453613281,219.25833129882812)" opacity="1" style="display: block;"><g opacity="1" transform="matrix(1,0,0,1,18.676000595092773,51.893001556396484)"><path fill="rgb(255,255,255)" fill-opacity="1" d=" M18.17799949645996,41.2859992980957 C18.17799949645996,41.2859992980957 1.2319999933242798,-40.01100158691406 1.2319999933242798,-40.01100158691406 C-1.1929999589920044,-51.643001556396484 -18.426000595092773,-49.76499938964844 -18.19300079345703,-37.8849983215332 C-18.190000534057617,-37.75600051879883 -17.783000946044922,-23.777999877929688 -17.72100067138672,-19.650999069213867 C-17.660999298095703,-15.61400032043457 -17.684999465942383,-11.524999618530273 -16.79599952697754,-7.564000129699707 C-15.524999618530273,-1.906999945640564 -12.958000183105469,3.4019999504089355 -10.932000160217285,8.8100004196167 C-8.729999542236328,14.690999984741211 -6.5289998054504395,20.56999969482422 -4.326000213623047,26.45199966430664 C-4.322999954223633,26.461999893188477 -4.317999839782715,26.472000122070312 -4.314000129699707,26.481000900268555 C-4.314000129699707,26.481000900268555 1.9579999446868896,43.847999572753906 1.9579999446868896,43.847999572753906 C1.9609999656677246,43.8489990234375 1.9780000448226929,43.8489990234375 1.9859999418258667,43.849998474121094 C2.2720000743865967,48.20100021362305 5.830999851226807,51.643001556396484 10.192999839782715,51.643001556396484 C14.739999771118164,51.643001556396484 18.426000595092773,47.90299987792969 18.426000595092773,43.290000915527344 C18.426000595092773,42.86800003051758 18.33300018310547,41.729000091552734 18.17799949645996,41.2859992980957z"></path><path stroke-linecap="butt" stroke-linejoin="miter" fill-opacity="0" stroke-miterlimit="4" stroke="#1e90ff" stroke-opacity="1" stroke-width="1" d=" M18.17799949645996,41.2859992980957 C18.17799949645996,41.2859992980957 1.2319999933242798,-40.01100158691406 1.2319999933242798,-40.01100158691406 C-1.1929999589920044,-51.643001556396484 -18.426000595092773,-49.76499938964844 -18.19300079345703,-37.8849983215332 C-18.190000534057617,-37.75600051879883 -17.783000946044922,-23.777999877929688 -17.72100067138672,-19.650999069213867 C-17.660999298095703,-15.61400032043457 -17.684999465942383,-11.524999618530273 -16.79599952697754,-7.564000129699707 C-15.524999618530273,-1.906999945640564 -12.958000183105469,3.4019999504089355 -10.932000160217285,8.8100004196167 C-8.729999542236328,14.690999984741211 -6.5289998054504395,20.56999969482422 -4.326000213623047,26.45199966430664 C-4.322999954223633,26.461999893188477 -4.317999839782715,26.472000122070312 -4.314000129699707,26.481000900268555 C-4.314000129699707,26.481000900268555 1.9579999446868896,43.847999572753906 1.9579999446868896,43.847999572753906 C1.9609999656677246,43.8489990234375 1.9780000448226929,43.8489990234375 1.9859999418258667,43.849998474121094 C2.2720000743865967,48.20100021362305 5.830999851226807,51.643001556396484 10.192999839782715,51.643001556396484 C14.739999771118164,51.643001556396484 18.426000595092773,47.90299987792969 18.426000595092773,43.290000915527344 C18.426000595092773,42.86800003051758 18.33300018310547,41.729000091552734 18.17799949645996,41.2859992980957z"></path></g></g><g transform="matrix(0.9998658299446106,-0.01638086512684822,0.01638086512684822,0.9998658299446106,129.54183959960938,306.1737976074219)" opacity="1" style="display: block;"><g opacity="1" transform="matrix(1,0,0,1,26.70800018310547,16.138999938964844)"><path fill="rgb(255,255,255)" fill-opacity="1" d=" M-21.680999755859375,-7.535999774932861 C-21.680999755859375,-7.3480000495910645 -21.665000915527344,-7.164999961853027 -21.652999877929688,-6.980999946594238 C-21.652999877929688,-6.980999946594238 -21.680999755859375,-6.978000164031982 -21.680999755859375,-6.978000164031982 C-21.680999755859375,-6.978000164031982 -17.27199935913086,3.811000108718872 -17.27199935913086,3.811000108718872 C-17.27199935913086,3.811000108718872 9.229999542236328,8.220000267028809 9.229999542236328,8.220000267028809 C9.229999542236328,8.220000267028809 -5.302999973297119,-8.777000427246094 -5.302999973297119,-8.777000427246094 C-5.302999973297119,-8.777000427246094 -5.313000202178955,-8.776000022888184 -5.313000202178955,-8.776000022888184"></path><path stroke-linecap="butt" stroke-linejoin="miter" fill-opacity="0" stroke-miterlimit="4" stroke="#1e90ff" stroke-opacity="1" stroke-width="1" d=" M-21.680999755859375,-7.535999774932861 C-21.680999755859375,-7.3480000495910645 -21.665000915527344,-7.164999961853027 -21.652999877929688,-6.980999946594238 C-21.652999877929688,-6.980999946594238 -21.680999755859375,-6.978000164031982 -21.680999755859375,-6.978000164031982 C-21.680999755859375,-6.978000164031982 -17.27199935913086,3.811000108718872 -17.27199935913086,3.811000108718872 C-17.27199935913086,3.811000108718872 9.229999542236328,8.220000267028809 9.229999542236328,8.220000267028809 C9.229999542236328,8.220000267028809 -5.302999973297119,-8.777000427246094 -5.302999973297119,-8.777000427246094 C-5.302999973297119,-8.777000427246094 -5.313000202178955,-8.776000022888184 -5.313000202178955,-8.776000022888184"></path></g></g><g transform="matrix(0.9998658299446106,-0.01638086512684822,0.01638086512684822,0.9998658299446106,130.4567108154297,315.07098388671875)" opacity="1" style="display: block;"><g opacity="1" transform="matrix(1,0,0,1,26.323999404907227,11.682999610900879)"><path fill="#1e90ff" fill-opacity="1" d=" M21.30299949645996,5.230000019073486 C21.30299949645996,5.230000019073486 8.845000267028809,3.765000104904175 8.845000267028809,3.765000104904175 C8.845000267028809,3.765000104904175 -13.496999740600586,-1.74399995803833 -13.496999740600586,-1.74399995803833 C-13.496999740600586,-1.74399995803833 -22.065000534057617,-11.432999610900879 -22.065000534057617,-11.432999610900879 C-22.065000534057617,-11.432999610900879 -25.240999221801758,-4.35099983215332 -25.240999221801758,-4.35099983215332 C-26.073999404907227,-2.493000030517578 -25.760000228881836,-0.5139999985694885 -24.722000122070312,0.9610000252723694 C-24.722000122070312,0.9610000252723694 -24.77199935913086,0.9610000252723694 -24.77199935913086,0.9610000252723694 C-24.77199935913086,0.9610000252723694 -23.29400062561035,11.138999938964844 -23.29400062561035,11.138999938964844 C-23.29400062561035,11.138999938964844 -12.730999946594238,11.138999938964844 -12.730999946594238,11.138999938964844 C-12.730999946594238,11.138999938964844 -12.730999946594238,3.8480000495910645 -12.730999946594238,3.8480000495910645 C-8.862000465393066,5.702000141143799 2.947999954223633,11.312000274658203 4.283999919891357,11.36299991607666 C6.124000072479248,11.432999610900879 26.073999404907227,11.36299991607666 26.073999404907227,11.36299991607666 C26.073999404907227,11.36299991607666 26.073999404907227,10.592000007629395 26.073999404907227,10.592000007629395 C26.073999404907227,7.855000019073486 24.02400016784668,5.550000190734863 21.30299949645996,5.230000019073486z"></path></g></g><g transform="matrix(0.9734088182449341,0.22907468676567078,-0.22907468676567078,0.9734088182449341,117.12306213378906,215.8630828857422)" opacity="1" style="display: block;"><g opacity="1" transform="matrix(1,0,0,1,18.676000595092773,51.893001556396484)"><path fill="rgb(255,255,255)" fill-opacity="1" d=" M18.17799949645996,41.2859992980957 C18.17799949645996,41.2859992980957 1.2319999933242798,-40.01100158691406 1.2319999933242798,-40.01100158691406 C-1.1929999589920044,-51.643001556396484 -18.426000595092773,-49.76499938964844 -18.19300079345703,-37.8849983215332 C-18.190000534057617,-37.75600051879883 -17.783000946044922,-23.777999877929688 -17.72100067138672,-19.650999069213867 C-17.660999298095703,-15.61400032043457 -17.684999465942383,-11.524999618530273 -16.79599952697754,-7.564000129699707 C-15.524999618530273,-1.906999945640564 -12.958000183105469,3.4019999504089355 -10.932000160217285,8.8100004196167 C-8.729999542236328,14.690999984741211 -6.5289998054504395,20.56999969482422 -4.326000213623047,26.45199966430664 C-4.322999954223633,26.461999893188477 -4.317999839782715,26.472000122070312 -4.314000129699707,26.481000900268555 C-4.314000129699707,26.481000900268555 1.9579999446868896,43.847999572753906 1.9579999446868896,43.847999572753906 C1.9609999656677246,43.8489990234375 1.9780000448226929,43.8489990234375 1.9859999418258667,43.849998474121094 C2.2720000743865967,48.20100021362305 5.830999851226807,51.643001556396484 10.192999839782715,51.643001556396484 C14.739999771118164,51.643001556396484 18.426000595092773,47.90299987792969 18.426000595092773,43.290000915527344 C18.426000595092773,42.86800003051758 18.33300018310547,41.729000091552734 18.17799949645996,41.2859992980957z"></path><path stroke-linecap="butt" stroke-linejoin="miter" fill-opacity="0" stroke-miterlimit="4" stroke="#1e90ff" stroke-opacity="1" stroke-width="1" d=" M18.17799949645996,41.2859992980957 C18.17799949645996,41.2859992980957 1.2319999933242798,-40.01100158691406 1.2319999933242798,-40.01100158691406 C-1.1929999589920044,-51.643001556396484 -18.426000595092773,-49.76499938964844 -18.19300079345703,-37.8849983215332 C-18.190000534057617,-37.75600051879883 -17.783000946044922,-23.777999877929688 -17.72100067138672,-19.650999069213867 C-17.660999298095703,-15.61400032043457 -17.684999465942383,-11.524999618530273 -16.79599952697754,-7.564000129699707 C-15.524999618530273,-1.906999945640564 -12.958000183105469,3.4019999504089355 -10.932000160217285,8.8100004196167 C-8.729999542236328,14.690999984741211 -6.5289998054504395,20.56999969482422 -4.326000213623047,26.45199966430664 C-4.322999954223633,26.461999893188477 -4.317999839782715,26.472000122070312 -4.314000129699707,26.481000900268555 C-4.314000129699707,26.481000900268555 1.9579999446868896,43.847999572753906 1.9579999446868896,43.847999572753906 C1.9609999656677246,43.8489990234375 1.9780000448226929,43.8489990234375 1.9859999418258667,43.849998474121094 C2.2720000743865967,48.20100021362305 5.830999851226807,51.643001556396484 10.192999839782715,51.643001556396484 C14.739999771118164,51.643001556396484 18.426000595092773,47.90299987792969 18.426000595092773,43.290000915527344 C18.426000595092773,42.86800003051758 18.33300018310547,41.729000091552734 18.17799949645996,41.2859992980957z"></path></g></g><g transform="matrix(0.9999971985816956,-0.002364132320508361,0.002364132320508361,0.9999971985816956,110.13056182861328,306.5408935546875)" opacity="1" style="display: block;"><g opacity="1" transform="matrix(1,0,0,1,26.70800018310547,16.138999938964844)"><path fill="rgb(255,255,255)" fill-opacity="1" d=" M-21.680999755859375,-7.535999774932861 C-21.680999755859375,-7.3480000495910645 -21.665000915527344,-7.164999961853027 -21.652999877929688,-6.980999946594238 C-21.652999877929688,-6.980999946594238 -21.680999755859375,-6.978000164031982 -21.680999755859375,-6.978000164031982 C-21.680999755859375,-6.978000164031982 -17.67099952697754,6.184000015258789 -17.67099952697754,6.184000015258789 C-17.67099952697754,6.184000015258789 9.45300006866455,8.803000450134277 9.45300006866455,8.803000450134277 C9.45300006866455,8.803000450134277 -5.302999973297119,-8.777000427246094 -5.302999973297119,-8.777000427246094 C-5.302999973297119,-8.777000427246094 -5.313000202178955,-8.776000022888184 -5.313000202178955,-8.776000022888184"></path><path stroke-linecap="butt" stroke-linejoin="miter" fill-opacity="0" stroke-miterlimit="4" stroke="#1e90ff" stroke-opacity="1" stroke-width="1" d=" M-21.680999755859375,-7.535999774932861 C-21.680999755859375,-7.3480000495910645 -21.665000915527344,-7.164999961853027 -21.652999877929688,-6.980999946594238 C-21.652999877929688,-6.980999946594238 -21.680999755859375,-6.978000164031982 -21.680999755859375,-6.978000164031982 C-21.680999755859375,-6.978000164031982 -17.67099952697754,6.184000015258789 -17.67099952697754,6.184000015258789 C-17.67099952697754,6.184000015258789 9.45300006866455,8.803000450134277 9.45300006866455,8.803000450134277 C9.45300006866455,8.803000450134277 -5.302999973297119,-8.777000427246094 -5.302999973297119,-8.777000427246094 C-5.302999973297119,-8.777000427246094 -5.313000202178955,-8.776000022888184 -5.313000202178955,-8.776000022888184"></path></g></g><g transform="matrix(0.9999971985816956,-0.002364132320508361,0.002364132320508361,0.9999971985816956,111.04227447509766,315.7217712402344)" opacity="1" style="display: block;"><g opacity="1" transform="matrix(1,0,0,1,26.323999404907227,11.682999610900879)"><path fill="#1e90ff" fill-opacity="1" d=" M20.95736312866211,3.875993013381958 C20.95736312866211,3.875993013381958 8.860271453857422,2.7816267013549805 8.860271453857422,2.7816267013549805 C8.860271453857422,2.7816267013549805 -13.496999740600586,-1.74399995803833 -13.496999740600586,-1.74399995803833 C-13.496999740600586,-1.74399995803833 -22.065000534057617,-11.432999610900879 -22.065000534057617,-11.432999610900879 C-22.065000534057617,-11.432999610900879 -25.240999221801758,-4.35099983215332 -25.240999221801758,-4.35099983215332 C-26.073999404907227,-2.493000030517578 -25.760000228881836,-0.5139999985694885 -24.722000122070312,0.9610000252723694 C-24.722000122070312,0.9610000252723694 -24.77199935913086,0.9610000252723694 -24.77199935913086,0.9610000252723694 C-24.77199935913086,0.9610000252723694 -23.23200035095215,10.890670776367188 -23.23200035095215,10.890670776367188 C-23.23200035095215,10.890670776367188 -12.668999671936035,10.890670776367188 -12.668999671936035,10.890670776367188 C-12.668999671936035,10.890670776367188 -12.730999946594238,3.8480000495910645 -12.730999946594238,3.8480000495910645 C-8.862000465393066,5.702000141143799 3.5039632320404053,10.663296699523926 4.839406490325928,10.710956573486328 C6.678849697113037,10.776501655578613 25.762168884277344,10.677505493164062 25.762168884277344,10.677505493164062 C25.762168884277344,10.677505493164062 25.739498138427734,9.22407341003418 25.739498138427734,9.22407341003418 C25.732816696166992,6.488187313079834 23.677804946899414,4.189311504364014 20.95736312866211,3.875993013381958z"></path></g></g><g transform="matrix(0.9916754961013794,-0.12876209616661072,0.12876209616661072,0.9916754961013794,87.64909362792969,46.253257751464844)" opacity="1" style="display: block;"><g opacity="1" transform="matrix(1,0,0,1,12.300999641418457,19.777999877929688)"><path fill="rgb(255,255,255)" fill-opacity="1" d=" M-12.050999641418457,5.425000190734863 C-12.050999641418457,5.425000190734863 -0.6150000095367432,19.527000427246094 -0.6150000095367432,19.527000427246094 C-0.6150000095367432,19.527000427246094 10.34000015258789,-7.375999927520752 10.34000015258789,-7.375999927520752 C12.050999641418457,-11.57800006866455 9.963000297546387,-16.363000869750977 5.718999862670898,-17.966999053955078 C1.5920000076293945,-19.527000427246094 -3.0239999294281006,-17.482999801635742 -4.642000198364258,-13.378000259399414 C-4.642000198364258,-13.378000259399414 -12.050999641418457,5.425000190734863 -12.050999641418457,5.425000190734863z"></path><path stroke-linecap="butt" stroke-linejoin="miter" fill-opacity="0" stroke-miterlimit="4" stroke="#1e90ff" stroke-opacity="1" stroke-width="1" d=" M-12.050999641418457,5.425000190734863 C-12.050999641418457,5.425000190734863 -0.6150000095367432,19.527000427246094 -0.6150000095367432,19.527000427246094 C-0.6150000095367432,19.527000427246094 10.34000015258789,-7.375999927520752 10.34000015258789,-7.375999927520752 C12.050999641418457,-11.57800006866455 9.963000297546387,-16.363000869750977 5.718999862670898,-17.966999053955078 C1.5920000076293945,-19.527000427246094 -3.0239999294281006,-17.482999801635742 -4.642000198364258,-13.378000259399414 C-4.642000198364258,-13.378000259399414 -12.050999641418457,5.425000190734863 -12.050999641418457,5.425000190734863z"></path></g></g><g transform="matrix(0.9963182806968689,-0.08573164790868759,0.08573164790868759,0.9963182806968689,94.14787292480469,37.90519332885742)" opacity="1" style="display: block;"><g opacity="1" transform="matrix(1,0,0,1,17.30900001525879,14.463000297546387)"><path fill="rgb(255,255,255)" fill-opacity="1" d=" M-6.280930519104004,10.724498748779297 C-6.471930503845215,10.01249885559082 -5.622930526733398,8.817499160766602 -4.423930644989014,9.429498672485352 C-3.22493052482605,10.041499137878418 3.515000104904175,13.479999542236328 3.515000104904175,13.479999542236328 C5.486000061035156,14.213000297546387 7.676000118255615,13.204000473022461 8.401000022888184,11.232000350952148 C8.401000022888184,11.232000350952148 10.798999786376953,4.708000183105469 10.798999786376953,4.708000183105469 C10.798999786376953,4.708000183105469 12.937000274658203,4.435999870300293 12.937000274658203,4.435999870300293 C14.26200008392334,4.267000198364258 15.003000259399414,2.815999984741211 14.362000465393066,1.6430000066757202 C14.362000465393066,1.6430000066757202 12.33899974822998,-2.055999994277954 12.33899974822998,-2.055999994277954 C12.229999542236328,-2.628999948501587 12.38599967956543,-3.2330000400543213 12.791999816894531,-3.680999994277954 C12.791999816894531,-3.680999994277954 14.383000373840332,-5.442999839782715 14.383000373840332,-5.442999839782715 C14.545000076293945,-5.623000144958496 14.67199993133545,-5.831999778747559 14.755000114440918,-6.059000015258789 C14.755000114440918,-6.059000015258789 17.05900001525879,-12.329999923706055 17.05900001525879,-12.329999923706055 C17.05900001525879,-12.329999923706055 -4.340000152587891,-14.213000297546387 -4.340000152587891,-14.213000297546387 C-4.340000152587891,-14.213000297546387 -12.133000373840332,-3.813999891281128 -12.133000373840332,-3.813999891281128 C-12.133000373840332,-3.813999891281128 -14.892000198364258,-4.935999870300293 -14.892000198364258,-4.935999870300293"></path><path stroke-linecap="round" stroke-linejoin="round" fill-opacity="0" stroke="#1e90ff" stroke-opacity="1" stroke-width="1" d=" M-6.280930519104004,10.724498748779297 C-6.471930503845215,10.01249885559082 -5.622930526733398,8.817499160766602 -4.423930644989014,9.429498672485352 C-3.22493052482605,10.041499137878418 3.515000104904175,13.479999542236328 3.515000104904175,13.479999542236328 C5.486000061035156,14.213000297546387 7.676000118255615,13.204000473022461 8.401000022888184,11.232000350952148 C8.401000022888184,11.232000350952148 10.798999786376953,4.708000183105469 10.798999786376953,4.708000183105469 C10.798999786376953,4.708000183105469 12.937000274658203,4.435999870300293 12.937000274658203,4.435999870300293 C14.26200008392334,4.267000198364258 15.003000259399414,2.815999984741211 14.362000465393066,1.6430000066757202 C14.362000465393066,1.6430000066757202 12.33899974822998,-2.055999994277954 12.33899974822998,-2.055999994277954 C12.229999542236328,-2.628999948501587 12.38599967956543,-3.2330000400543213 12.791999816894531,-3.680999994277954 C12.791999816894531,-3.680999994277954 14.383000373840332,-5.442999839782715 14.383000373840332,-5.442999839782715 C14.545000076293945,-5.623000144958496 14.67199993133545,-5.831999778747559 14.755000114440918,-6.059000015258789 C14.755000114440918,-6.059000015258789 17.05900001525879,-12.329999923706055 17.05900001525879,-12.329999923706055 C17.05900001525879,-12.329999923706055 -4.340000152587891,-14.213000297546387 -4.340000152587891,-14.213000297546387 C-4.340000152587891,-14.213000297546387 -12.133000373840332,-3.813999891281128 -12.133000373840332,-3.813999891281128 C-12.133000373840332,-3.813999891281128 -14.892000198364258,-4.935999870300293 -14.892000198364258,-4.935999870300293"></path></g></g><g transform="matrix(0.9963182806968689,-0.08573164790868759,0.08573164790868759,0.9963182806968689,119.94288635253906,43.10790252685547)" opacity="1" style="display: block;"><g opacity="1" transform="matrix(1,0,0,1,3.0360000133514404,2.069999933242798)"><path fill="rgb(255,255,255)" fill-opacity="1" d=" M3.0369999408721924,-0.8420000076293945 C3.0369999408721924,-0.8420000076293945 -0.11599999666213989,-2 -0.11599999666213989,-2 C-0.4009999930858612,-2.1040000915527344 -0.7129999995231628,-2.0910000801086426 -0.9869999885559082,-1.965000033378601 C-0.9869999885559082,-1.965000033378601 -2.375,-1.3220000267028809 -2.375,-1.3220000267028809"></path><path stroke-linecap="round" stroke-linejoin="round" fill-opacity="0" stroke="#1e90ff" stroke-opacity="1" stroke-width="1" d=" M3.0369999408721924,-0.8420000076293945 C3.0369999408721924,-0.8420000076293945 -0.11599999666213989,-2 -0.11599999666213989,-2 C-0.4009999930858612,-2.1040000915527344 -0.7129999995231628,-2.0910000801086426 -0.9869999885559082,-1.965000033378601 C-0.9869999885559082,-1.965000033378601 -2.375,-1.3220000267028809 -2.375,-1.3220000267028809"></path></g></g><g transform="matrix(0.9963182806968689,-0.08573164790868759,0.08573164790868759,0.9963182806968689,120.15202331542969,55.10313415527344)" opacity="1" style="display: block;"><g opacity="1" transform="matrix(1,0,0,1,1.5950000286102295,1.6710000038146973)"><path fill="rgb(255,255,255)" fill-opacity="1" d=" M-1.5950000286102295,-1.6699999570846558 C-1.5950000286102295,-1.6699999570846558 -1.4800000190734863,-0.7269999980926514 -1.4800000190734863,-0.7269999980926514 C-1.4170000553131104,-0.210999995470047 -1.1449999809265137,0.257999986410141 -0.7260000109672546,0.5680000185966492 C-0.7260000109672546,0.5680000185966492 0.7799999713897705,1.6710000038146973 0.7799999713897705,1.6710000038146973 C0.7799999713897705,1.6710000038146973 1.5950000286102295,-0.5479999780654907 1.5950000286102295,-0.5479999780654907 C1.5950000286102295,-0.5479999780654907 -1.5950000286102295,-1.6699999570846558 -1.5950000286102295,-1.6699999570846558z"></path><path stroke-linecap="round" stroke-linejoin="round" fill-opacity="0" stroke="#1e90ff" stroke-opacity="1" stroke-width="1" d=" M-1.5950000286102295,-1.6699999570846558 C-1.5950000286102295,-1.6699999570846558 -1.4800000190734863,-0.7269999980926514 -1.4800000190734863,-0.7269999980926514 C-1.4170000553131104,-0.210999995470047 -1.1449999809265137,0.257999986410141 -0.7260000109672546,0.5680000185966492 C-0.7260000109672546,0.5680000185966492 0.7799999713897705,1.6710000038146973 0.7799999713897705,1.6710000038146973 C0.7799999713897705,1.6710000038146973 1.5950000286102295,-0.5479999780654907 1.5950000286102295,-0.5479999780654907 C1.5950000286102295,-0.5479999780654907 -1.5950000286102295,-1.6699999570846558 -1.5950000286102295,-1.6699999570846558z"></path></g></g><g transform="matrix(1,0,0,1,47.25,133.18399047851562)" opacity="1" style="display: block;"><g opacity="1" transform="matrix(1,0,0,1,45.005001068115234,54.72800064086914)"><path fill="#1e90ff" fill-opacity="1" d=" M44.755001068115234,44.81800079345703 C44.755001068115234,44.81800079345703 42.0890007019043,33.1609992980957 42.0890007019043,33.1609992980957 C42.0890007019043,33.1609992980957 24.52899932861328,6.465000152587891 24.52899932861328,6.465000152587891 C24.52899932861328,6.465000152587891 24.566999435424805,6.431000232696533 24.566999435424805,6.431000232696533 C24.566999435424805,6.431000232696533 -5.184000015258789,-45.999000549316406 -5.184000015258789,-45.999000549316406 C-13.307999610900879,-54.08300018310547 -26.309999465942383,-54.47800064086914 -34.90999984741211,-46.90299987792969 C-43.89099884033203,-38.992000579833984 -44.755001068115234,-25.29800033569336 -36.84199905395508,-16.32200050354004 C-36.84199905395508,-16.32200050354004 -8.434000015258789,15.906999588012695 -8.434000015258789,15.906999588012695 C-8.434000015258789,15.906999588012695 11.154999732971191,48.46799850463867 11.154999732971191,48.46799850463867 C11.154999732971191,48.46799850463867 14.770000457763672,54.47700119018555 14.770000457763672,54.47700119018555 C14.770000457763672,54.47700119018555 44.755001068115234,44.81800079345703 44.755001068115234,44.81800079345703z"></path></g></g><g transform="matrix(0.9462611675262451,-0.3234034776687622,0.3234034776687622,0.9462611675262451,26.303730010986328,81.36260223388672)" opacity="1" style="display: block;"><g opacity="1" transform="matrix(1,0,0,1,39.45500183105469,39.38199996948242)"><path fill="rgb(255,255,255)" fill-opacity="1" d=" M0.2633318603038788,45.46611404418945 C0.2633318603038788,45.46611404418945 -36.79867172241211,32.872318267822266 -36.79867172241211,32.872318267822266 C-34.36747360229492,27.888338088989258 -31.593467712402344,24.063325881958008 -26.354000091552734,18.18000030517578 C-26.354000091552734,18.18000030517578 -11.895999908447266,4.684000015258789 -11.895999908447266,4.684000015258789 C-7.478000164031982,0.5600000023841858 -3.944999933242798,-4.421000003814697 -1.5140000581741333,-9.954000473022461 C-1.5140000581741333,-9.954000473022461 11.707229614257812,-30.746305465698242 13.39745807647705,-32.50991439819336 C17.558748245239258,-37.151611328125 23.3587703704834,-38.160194396972656 27.96156120300293,-37.21311950683594 C32.95107650756836,-36.15083694458008 38.42146301269531,-32.260433197021484 38.954349517822266,-24.662506103515625 C39.48723220825195,-20.7922420501709 39.20600128173828,-4.203999996185303 39.20600128173828,-4.203999996185303 C39.20600128173828,0.8889999985694885 36.28799819946289,5.5329999923706055 31.69700050354004,7.74399995803833 C31.69700050354004,7.74399995803833 20.26799964904785,13.244999885559082 20.26799964904785,13.244999885559082 C20.26799964904785,13.244999885559082 0.2633318603038788,45.46611404418945 0.2633318603038788,45.46611404418945z"></path><path stroke-linecap="round" stroke-linejoin="round" fill-opacity="0" stroke="#1e90ff" stroke-opacity="1" stroke-width="1" d=" M0.2633318603038788,45.46611404418945 C0.2633318603038788,45.46611404418945 -36.79867172241211,32.872318267822266 -36.79867172241211,32.872318267822266 C-34.36747360229492,27.888338088989258 -31.593467712402344,24.063325881958008 -26.354000091552734,18.18000030517578 C-26.354000091552734,18.18000030517578 -11.895999908447266,4.684000015258789 -11.895999908447266,4.684000015258789 C-7.478000164031982,0.5600000023841858 -3.944999933242798,-4.421000003814697 -1.5140000581741333,-9.954000473022461 C-1.5140000581741333,-9.954000473022461 11.707229614257812,-30.746305465698242 13.39745807647705,-32.50991439819336 C17.558748245239258,-37.151611328125 23.3587703704834,-38.160194396972656 27.96156120300293,-37.21311950683594 C32.95107650756836,-36.15083694458008 38.42146301269531,-32.260433197021484 38.954349517822266,-24.662506103515625 C39.48723220825195,-20.7922420501709 39.20600128173828,-4.203999996185303 39.20600128173828,-4.203999996185303 C39.20600128173828,0.8889999985694885 36.28799819946289,5.5329999923706055 31.69700050354004,7.74399995803833 C31.69700050354004,7.74399995803833 20.26799964904785,13.244999885559082 20.26799964904785,13.244999885559082 C20.26799964904785,13.244999885559082 0.2633318603038788,45.46611404418945 0.2633318603038788,45.46611404418945z"></path></g></g><g transform="matrix(0.9963182806968689,-0.08573164790868759,0.08573164790868759,0.9963182806968689,87.99488830566406,17.278757095336914)" opacity="1" style="display: block;"><g opacity="1" transform="matrix(1,0,0,1,22.429000854492188,19.172000885009766)"><path fill="#1e90ff" fill-opacity="1" d=" M10.053999900817871,-13.041999816894531 C8.982999801635742,-13.517000198364258 7.748000144958496,-13.652000427246094 6.684999942779541,-13.27400016784668 C6.316999912261963,-15.600000381469727 1.906999945640564,-16.257999420166016 0.2070000022649765,-17.076000213623047 C-4.820000171661377,-18.922000885009766 -10.208999633789062,-17.82699966430664 -14.071999549865723,-14.663999557495117 C-14.54800033569336,-13.366999626159668 -15.67199993133545,-10.305999755859375 -16.64699935913086,-7.6519999504089355 C-16.64699935913086,-7.6519999504089355 -17.558000564575195,-5.40500020980835 -18.332000732421875,-3.683000087738037 C-18.275999069213867,-3.622999906539917 -18.22800064086914,-3.555000066757202 -18.176000595092773,-3.490999937057495 C-18.275999069213867,-3.2200000286102295 -18.333999633789062,-3.062000036239624 -18.333999633789062,-3.062000036239624 C-18.333999633789062,-3.062000036239624 -17.729000091552734,-2.8380000591278076 -17.729000091552734,-2.8380000591278076 C-16.10700035095215,-0.6480000019073486 -19.395999908447266,4.895999908447266 -19.913999557495117,7.083000183105469 C-22.179000854492188,14.515000343322754 -16.14699935913086,17.132999420166016 -10.236000061035156,18.922000885009766 C-10.236000061035156,18.922000885009766 -5.514999866485596,13.883000373840332 -5.514999866485596,13.883000373840332 C-6.355000019073486,13.229000091552734 -6.86299991607666,12.204999923706055 -6.8379998207092285,11.100000381469727 C-6.8379998207092285,11.100000381469727 -6.730999946594238,6.567999839782715 -6.730999946594238,6.567999839782715 C-6.676000118255615,4.21999979019165 -4.328000068664551,2.621000051498413 -2.121999979019165,3.430999994277954 C-2.121999979019165,3.430999994277954 -1.8919999599456787,3.515000104904175 -1.8919999599456787,3.515000104904175 C-0.3230000138282776,4.0920000076293945 0.7020000219345093,5.498000144958496 0.875,7.061999797821045 C0.875,7.061999797821045 2.802999973297119,5.005000114440918 2.802999973297119,5.005000114440918 C2.802999973297119,5.005000114440918 17.632999420166016,10.451000213623047 17.632999420166016,10.451000213623047 C22.179000854492188,1.4900000095367432 20.06800079345703,-9.237000465393066 10.053999900817871,-13.041999816894531z"></path></g></g><g transform="matrix(0.9978246688842773,-0.06592435389757156,0.06592435389757156,0.9978246688842773,77.11400604248047,22.15150260925293)" opacity="1" style="display: block;"><g opacity="1" transform="matrix(1,0,0,1,9.996000289916992,23.05299949645996)"><path fill="#1e90ff" fill-opacity="1" d=" M-9.744999885559082,22.80299949645996 C-9.744999885559082,22.80299949645996 -9.744999885559082,22.80299949645996 -9.744999885559082,22.80299949645996 C-3.308000087738037,22.80299949645996 1.909999966621399,17.586999893188477 1.909999966621399,11.152999877929688 C1.909999966621399,11.152999877929688 1.909999966621399,-5.567999839782715 1.909999966621399,-5.567999839782715 C1.909999966621399,-10.958999633789062 3.9779999256134033,-12.708000183105469 6.956999778747559,-12.28499984741211 C6.956999778747559,-12.28499984741211 9.746000289916992,-22.80299949645996 9.746000289916992,-22.80299949645996 C9.746000289916992,-22.80299949645996 2.8259999752044678,-22.702999114990234 2.8259999752044678,-22.702999114990234 C-4.117000102996826,-22.702999114990234 -9.746000289916992,-17.075000762939453 -9.746000289916992,-10.133999824523926 C-9.746000289916992,-10.133999824523926 -9.746000289916992,22.80299949645996 -9.746000289916992,22.80299949645996 C-9.746000289916992,22.80299949645996 -9.744999885559082,22.80299949645996 -9.744999885559082,22.80299949645996z"></path></g></g><g transform="matrix(0.9963182806968689,-0.08573164790868759,0.08573164790868759,0.9963182806968689,90.81477355957031,19.769176483154297)" opacity="1" style="display: block;"><g opacity="1" transform="matrix(1,0,0,1,3.683000087738037,7.442999839782715)"><path stroke-linecap="round" stroke-linejoin="round" fill-opacity="0" stroke="#1e90ff" stroke-opacity="1" stroke-width="4" d=" M2.184000015258789,-5.943999767303467 C2.184000015258789,-5.943999767303467 -2.184000015258789,5.943999767303467 -2.184000015258789,5.943999767303467"></path><path stroke-linecap="round" stroke-linejoin="round" fill-opacity="0" stroke="rgb(255,255,255)" stroke-opacity="1" stroke-width="2" d=" M2.184000015258789,-5.943999767303467 C2.184000015258789,-5.943999767303467 -2.184000015258789,5.943999767303467 -2.184000015258789,5.943999767303467"></path></g></g><g transform="matrix(0.9823946356773376,-0.18681776523590088,0.18681776523590088,0.9823946356773376,151.97439575195312,130.92401123046875)" opacity="1" style="display: block;"><g opacity="1" transform="matrix(1,0,0,1,14.513999938964844,9.793999671936035)"><path fill="#1e90ff" fill-opacity="1" d=" M2.4639999866485596,0.49300000071525574 C2.4639999866485596,0.49300000071525574 -0.7080000042915344,-1.7890000343322754 -0.7080000042915344,-1.7890000343322754 C-0.9229999780654907,-1.944000005722046 -1.1890000104904175,-2.0360000133514404 -1.4739999771118164,-2.0360000133514404 C-2.196000099182129,-2.0360000133514404 -2.7820000648498535,-1.4500000476837158 -2.7820000648498535,-0.7279999852180481 C-2.7820000648498535,-0.22699999809265137 -2.499000072479248,0.20999999344348907 -2.0840001106262207,0.4300000071525574 C-2.0840001106262207,0.4300000071525574 0.3269999921321869,1.6649999618530273 0.3269999921321869,1.6649999618530273 C1.215999960899353,2.0360000133514404 2.1649999618530273,1.812000036239624 2.634999990463257,1.1859999895095825 C2.634999990463257,1.1859999895095825 2.6419999599456787,1.1759999990463257 2.6419999599456787,1.1759999990463257 C2.7820000648498535,0.9380000233650208 2.7019999027252197,0.6330000162124634 2.4639999866485596,0.49300000071525574z"></path><path stroke-linecap="butt" stroke-linejoin="miter" fill-opacity="0" stroke-miterlimit="4" stroke="#1e90ff" stroke-opacity="1" stroke-width="1" d=" M2.4639999866485596,0.49300000071525574 C2.4639999866485596,0.49300000071525574 -0.7080000042915344,-1.7890000343322754 -0.7080000042915344,-1.7890000343322754 C-0.9229999780654907,-1.944000005722046 -1.1890000104904175,-2.0360000133514404 -1.4739999771118164,-2.0360000133514404 C-2.196000099182129,-2.0360000133514404 -2.7820000648498535,-1.4500000476837158 -2.7820000648498535,-0.7279999852180481 C-2.7820000648498535,-0.22699999809265137 -2.499000072479248,0.20999999344348907 -2.0840001106262207,0.4300000071525574 C-2.0840001106262207,0.4300000071525574 0.3269999921321869,1.6649999618530273 0.3269999921321869,1.6649999618530273 C1.215999960899353,2.0360000133514404 2.1649999618530273,1.812000036239624 2.634999990463257,1.1859999895095825 C2.634999990463257,1.1859999895095825 2.6419999599456787,1.1759999990463257 2.6419999599456787,1.1759999990463257 C2.7820000648498535,0.9380000233650208 2.7019999027252197,0.6330000162124634 2.4639999866485596,0.49300000071525574z"></path></g></g><g transform="matrix(0.9220853447914124,-0.386986643075943,0.386986643075943,0.9220853447914124,150.94082641601562,134.0692596435547)" opacity="1" style="display: block;"><g opacity="1" transform="matrix(1,0,0,1,10.241999626159668,7.269999980926514)"><path fill="#1e90ff" fill-opacity="1" d=" M3.565999984741211,0.7350000143051147 C3.565999984741211,0.7350000143051147 -1.3760000467300415,-2.809000015258789 -1.3760000467300415,-2.809000015258789 C-1.656999945640564,-3.00600004196167 -2.01200008392334,-3.1040000915527344 -2.380000114440918,-3.1040000915527344 C-3.3340001106262207,-3.1040000915527344 -4.10699987411499,-2.3299999237060547 -4.10699987411499,-1.3760000467300415 C-4.10699987411499,-0.7250000238418579 -3.744999885559082,-0.15800000727176666 -3.2119998931884766,0.13600000739097595 C-3.2119998931884766,0.13600000739097595 2.187999963760376,2.9539999961853027 2.187999963760376,2.9539999961853027 C2.371000051498413,3.049999952316284 2.578000068664551,3.1040000915527344 2.7990000247955322,3.1040000915527344 C3.5220000743865967,3.1040000915527344 4.10699987411499,2.5179998874664307 4.10699987411499,1.7960000038146973 C4.10699987411499,1.3569999933242798 3.8959999084472656,0.972000002861023 3.565999984741211,0.7350000143051147z"></path><path stroke-linecap="butt" stroke-linejoin="miter" fill-opacity="0" stroke-miterlimit="4" stroke="#1e90ff" stroke-opacity="1" stroke-width="1" d=" M3.565999984741211,0.7350000143051147 C3.565999984741211,0.7350000143051147 -1.3760000467300415,-2.809000015258789 -1.3760000467300415,-2.809000015258789 C-1.656999945640564,-3.00600004196167 -2.01200008392334,-3.1040000915527344 -2.380000114440918,-3.1040000915527344 C-3.3340001106262207,-3.1040000915527344 -4.10699987411499,-2.3299999237060547 -4.10699987411499,-1.3760000467300415 C-4.10699987411499,-0.7250000238418579 -3.744999885559082,-0.15800000727176666 -3.2119998931884766,0.13600000739097595 C-3.2119998931884766,0.13600000739097595 2.187999963760376,2.9539999961853027 2.187999963760376,2.9539999961853027 C2.371000051498413,3.049999952316284 2.578000068664551,3.1040000915527344 2.7990000247955322,3.1040000915527344 C3.5220000743865967,3.1040000915527344 4.10699987411499,2.5179998874664307 4.10699987411499,1.7960000038146973 C4.10699987411499,1.3569999933242798 3.8959999084472656,0.972000002861023 3.565999984741211,0.7350000143051147z"></path></g></g><g transform="matrix(0.5625578165054321,-0.8267580270767212,0.8267580270767212,0.5625578165054321,151.21517944335938,139.6396942138672)" opacity="1" style="display: block;"><g opacity="1" transform="matrix(1,0,0,1,4.919000148773193,3.936000108718872)"><path fill="#1e90ff" fill-opacity="1" d=" M3.9509999752044678,0.527999997138977 C3.9509999752044678,0.527999997138977 -1.5140000581741333,-3.3949999809265137 -1.5140000581741333,-3.3949999809265137 C-1.8220000267028809,-3.5799999237060547 -2.177000045776367,-3.686000108718872 -2.556999921798706,-3.686000108718872 C-3.7239999771118164,-3.686000108718872 -4.670000076293945,-2.686000108718872 -4.670000076293945,-1.4509999752044678 C-4.670000076293945,-0.6110000014305115 -4.223999977111816,0.11400000005960464 -3.5739998817443848,0.4950000047683716 C-3.5739998817443848,0.4950000047683716 -3.5789999961853027,0.5040000081062317 -3.5789999961853027,0.5040000081062317 C-3.5789999961853027,0.5040000081062317 2.115999937057495,3.4749999046325684 2.115999937057495,3.4749999046325684 C2.36299991607666,3.611999988555908 2.640000104904175,3.686000108718872 2.943000078201294,3.686000108718872 C3.8970000743865967,3.686000108718872 4.670000076293945,2.9130001068115234 4.670000076293945,1.9589999914169312 C4.670000076293945,1.3739999532699585 4.395999908447266,0.8399999737739563 3.9509999752044678,0.527999997138977z"></path><path stroke-linecap="butt" stroke-linejoin="miter" fill-opacity="0" stroke-miterlimit="4" stroke="#1e90ff" stroke-opacity="1" stroke-width="1" d=" M3.9509999752044678,0.527999997138977 C3.9509999752044678,0.527999997138977 -1.5140000581741333,-3.3949999809265137 -1.5140000581741333,-3.3949999809265137 C-1.8220000267028809,-3.5799999237060547 -2.177000045776367,-3.686000108718872 -2.556999921798706,-3.686000108718872 C-3.7239999771118164,-3.686000108718872 -4.670000076293945,-2.686000108718872 -4.670000076293945,-1.4509999752044678 C-4.670000076293945,-0.6110000014305115 -4.223999977111816,0.11400000005960464 -3.5739998817443848,0.4950000047683716 C-3.5739998817443848,0.4950000047683716 -3.5789999961853027,0.5040000081062317 -3.5789999961853027,0.5040000081062317 C-3.5789999961853027,0.5040000081062317 2.115999937057495,3.4749999046325684 2.115999937057495,3.4749999046325684 C2.36299991607666,3.611999988555908 2.640000104904175,3.686000108718872 2.943000078201294,3.686000108718872 C3.8970000743865967,3.686000108718872 4.670000076293945,2.9130001068115234 4.670000076293945,1.9589999914169312 C4.670000076293945,1.3739999532699585 4.395999908447266,0.8399999737739563 3.9509999752044678,0.527999997138977z"></path></g></g><g transform="matrix(0.8855796456336975,0.46448764204978943,-0.46448764204978943,0.8855796456336975,103.80213928222656,113.39302825927734)" opacity="1" style="display: block;"><g opacity="1" transform="matrix(1,0,0,1,26.93899917602539,7.934999942779541)"><path fill="rgb(255,255,255)" fill-opacity="1" d=" M22.711000442504883,-1.3799999952316284 C22.711000442504883,-1.3799999952316284 22.711999893188477,-1.4019999504089355 22.711999893188477,-1.4019999504089355 C22.711999893188477,-1.4019999504089355 -7.4710001945495605,-6.263000011444092 -7.4710001945495605,-6.263000011444092 C-9.130000114440918,-6.508999824523926 -13.633999824523926,-6.985000133514404 -15.310999870300293,-7.010000228881836 C-15.310999870300293,-7.010000228881836 -21.09600067138672,-7.459000110626221 -21.09600067138672,-7.459000110626221 C-24.009000778198242,-7.684999942779541 -26.510000228881836,-5.4079999923706055 -26.55699920654297,-2.4860000610351562 C-26.55699920654297,-2.4860000610351562 -26.658000946044922,3.8340001106262207 -26.658000946044922,3.8340001106262207 C-26.68899917602539,5.931000232696533 -24.570999145507812,7.6539998054504395 -22.475000381469727,7.684999942779541 C-22.475000381469727,7.684999942779541 22.118000030517578,7.564000129699707 22.118000030517578,7.564000129699707 C22.118000030517578,7.564000129699707 22.118000030517578,7.558000087738037 22.118000030517578,7.558000087738037 C22.14299964904785,7.558000087738037 22.166000366210938,7.564000129699707 22.190000534057617,7.564000129699707 C24.674999237060547,7.564000129699707 26.68899917602539,5.551000118255615 26.68899917602539,3.065999984741211 C26.68899917602539,0.7599999904632568 24.94700050354004,-1.11899995803833 22.711000442504883,-1.3799999952316284z"></path><path stroke-linecap="butt" stroke-linejoin="miter" fill-opacity="0" stroke-miterlimit="4" stroke="#1e90ff" stroke-opacity="1" stroke-width="1" d=" M22.711000442504883,-1.3799999952316284 C22.711000442504883,-1.3799999952316284 22.711999893188477,-1.4019999504089355 22.711999893188477,-1.4019999504089355 C22.711999893188477,-1.4019999504089355 -7.4710001945495605,-6.263000011444092 -7.4710001945495605,-6.263000011444092 C-9.130000114440918,-6.508999824523926 -13.633999824523926,-6.985000133514404 -15.310999870300293,-7.010000228881836 C-15.310999870300293,-7.010000228881836 -21.09600067138672,-7.459000110626221 -21.09600067138672,-7.459000110626221 C-24.009000778198242,-7.684999942779541 -26.510000228881836,-5.4079999923706055 -26.55699920654297,-2.4860000610351562 C-26.55699920654297,-2.4860000610351562 -26.658000946044922,3.8340001106262207 -26.658000946044922,3.8340001106262207 C-26.68899917602539,5.931000232696533 -24.570999145507812,7.6539998054504395 -22.475000381469727,7.684999942779541 C-22.475000381469727,7.684999942779541 22.118000030517578,7.564000129699707 22.118000030517578,7.564000129699707 C22.118000030517578,7.564000129699707 22.118000030517578,7.558000087738037 22.118000030517578,7.558000087738037 C22.14299964904785,7.558000087738037 22.166000366210938,7.564000129699707 22.190000534057617,7.564000129699707 C24.674999237060547,7.564000129699707 26.68899917602539,5.551000118255615 26.68899917602539,3.065999984741211 C26.68899917602539,0.7599999904632568 24.94700050354004,-1.11899995803833 22.711000442504883,-1.3799999952316284z"></path></g></g><g transform="matrix(0.7099748849868774,-0.7042270302772522,0.7042270302772522,0.7099748849868774,135.30453491210938,145.85337829589844)" opacity="1" style="display: block;"><g opacity="1" transform="matrix(1,0,0,1,10.413000106811523,6.505000114440918)"><path fill="rgb(255,255,255)" fill-opacity="1" d=" M-7.917914867401123,2.1832687854766846 C-4.3393378257751465,4.069363594055176 -0.3421081304550171,4.72628927230835 1.1023045778274536,4.841533184051514 C1.971219539642334,4.9247918128967285 7.787746429443359,5.533502578735352 8.492005348205566,4.755115032196045 C9.628666877746582,4.61924934387207 12.6849946975708,4.094677925109863 12.6849946975708,2.927677631378174 C12.6849946975708,1.92567777633667 9.612566947937012,0.4913184940814972 8.674219131469727,0.10522875934839249 C8.674219131469727,0.10522875934839249 3.025289297103882,-2.9760146141052246 2.632999897003174,-3.1489999294281006 C1.0114326477050781,-3.996000051498413 -0.48683616518974304,-4.624373435974121 -2.7855026721954346,-5.598860740661621"></path><path stroke-linecap="round" stroke-linejoin="round" fill-opacity="0" stroke="#1e90ff" stroke-opacity="1" stroke-width="1" d=" M-7.917914867401123,2.1832687854766846 C-4.3393378257751465,4.069363594055176 -0.3421081304550171,4.72628927230835 1.1023045778274536,4.841533184051514 C1.971219539642334,4.9247918128967285 7.787746429443359,5.533502578735352 8.492005348205566,4.755115032196045 C9.628666877746582,4.61924934387207 12.6849946975708,4.094677925109863 12.6849946975708,2.927677631378174 C12.6849946975708,1.92567777633667 9.612566947937012,0.4913184940814972 8.674219131469727,0.10522875934839249 C8.674219131469727,0.10522875934839249 3.025289297103882,-2.9760146141052246 2.632999897003174,-3.1489999294281006 C1.0114326477050781,-3.996000051498413 -0.48683616518974304,-4.624373435974121 -2.7855026721954346,-5.598860740661621"></path></g></g><g transform="matrix(0.8154421448707581,0.578838586807251,-0.578838586807251,0.8154421448707581,94.6778335571289,56.21791458129883)" opacity="1" style="display: block;"><g opacity="1" transform="matrix(1,0,0,1,26.924999237060547,28.89900016784668)"><path fill="rgb(255,255,255)" fill-opacity="1" d=" M-9.428377151489258,-23.364749908447266 C-5.318586826324463,-19.731964111328125 22.086181640625,10.691131591796875 22.086181640625,10.691131591796875 C22.086181640625,10.691131591796875 23.484758377075195,11.263243675231934 23.484758377075195,11.263243675231934 C23.484758377075195,11.263243675231934 21.33300018310547,26.591999053955078 21.33300018310547,26.591999053955078 C20.288999557495117,28.64900016784668 17.56014633178711,27.94099998474121 15.917145729064941,26.32200050354004 C15.917145729064941,26.32200050354004 -5.845090389251709,4.076589584350586 -5.845090389251709,4.076589584350586"></path><path stroke-linecap="round" stroke-linejoin="round" fill-opacity="0" stroke="#1e90ff" stroke-opacity="1" stroke-width="1" d=" M-9.428377151489258,-23.364749908447266 C-5.318586826324463,-19.731964111328125 22.086181640625,10.691131591796875 22.086181640625,10.691131591796875 C22.086181640625,10.691131591796875 23.484758377075195,11.263243675231934 23.484758377075195,11.263243675231934 C23.484758377075195,11.263243675231934 21.33300018310547,26.591999053955078 21.33300018310547,26.591999053955078 C20.288999557495117,28.64900016784668 17.56014633178711,27.94099998474121 15.917145729064941,26.32200050354004 C15.917145729064941,26.32200050354004 -5.845090389251709,4.076589584350586 -5.845090389251709,4.076589584350586"></path></g></g><g transform="matrix(0.24162064492702484,-0.9703707695007324,0.9703707695007324,0.24162064492702484,153.5937042236328,145.64955139160156)" opacity="1" style="display: block;"><g opacity="1" transform="matrix(1,0,0,1,7.243000030517578,5.673999786376953)"><path fill="rgb(255,255,255)" fill-opacity="1" d=" M0.5043100118637085,-3.150059938430786 C0.4823099970817566,-0.8700600266456604 -1.2200000286102295,1.6480000019073486 -1.2200000286102295,1.6480000019073486 C-1.2200000286102295,1.6490000486373901 -1.38100004196167,1.7890000343322754 -1.38100004196167,1.7910000085830688 C-1.9800200462341309,1.6182899475097656 -2.0409998893737793,2.4570000171661377 -2.0409998893737793,2.9509999752044678 C-2.0409998893737793,3.7019999027252197 -1.4320000410079956,4.310999870300293 -0.6809999942779541,4.310999870300293 C-0.07400000095367432,4.310999870300293 0.4339999854564667,3.9110000133514404 0.609000027179718,3.3610000610351562 C0.6110000014305115,3.361999988555908 2.350719928741455,1.0029000043869019 2.862989902496338,-0.9027000069618225 C3.2743000984191895,-2.496419906616211 3.0964601039886475,-3.82955002784729 2.823580026626587,-4.621419906616211"></path><path stroke-linecap="round" stroke-linejoin="round" fill-opacity="0" stroke="#1e90ff" stroke-opacity="1" stroke-width="1" d=" M0.5043100118637085,-3.150059938430786 C0.4823099970817566,-0.8700600266456604 -1.2200000286102295,1.6480000019073486 -1.2200000286102295,1.6480000019073486 C-1.2200000286102295,1.6490000486373901 -1.38100004196167,1.7890000343322754 -1.38100004196167,1.7910000085830688 C-1.9800200462341309,1.6182899475097656 -2.0409998893737793,2.4570000171661377 -2.0409998893737793,2.9509999752044678 C-2.0409998893737793,3.7019999027252197 -1.4320000410079956,4.310999870300293 -0.6809999942779541,4.310999870300293 C-0.07400000095367432,4.310999870300293 0.4339999854564667,3.9110000133514404 0.609000027179718,3.3610000610351562 C0.6110000014305115,3.361999988555908 2.350719928741455,1.0029000043869019 2.862989902496338,-0.9027000069618225 C3.2743000984191895,-2.496419906616211 3.0964601039886475,-3.82955002784729 2.823580026626587,-4.621419906616211"></path></g></g><g transform="matrix(-0.05297379195690155,-0.9985958933830261,0.9985958933830261,-0.05297379195690155,155.2619171142578,148.38250732421875)" opacity="1" style="display: block;"><g opacity="1" transform="matrix(1,0,0,1,4.085999965667725,8.62399959564209)"><path fill="rgb(255,255,255)" fill-opacity="1" d=" M1.694991946220398,-1.2317618131637573 C1.6099920272827148,-1.2317618131637573 -2.4690001010894775,-1.0360000133514404 -2.4690001010894775,-1.0360000133514404 C-3.072999954223633,-0.9110000133514404 -3.75600004196167,-0.25 -3.8289999961853027,0.5099999904632568 C-3.8259999752044678,0.5189999938011169 -3.8259999752044678,0.5180000066757202 -3.8359999656677246,0.5230000019073486 C-3.822000026702881,0.796999990940094 -3.6070001125335693,1.0140000581741333 -3.3329999446868896,1 C-3.3329999446868896,1 -1.9529999494552612,1.0859999656677246 -1.9529999494552612,1.0859999656677246 C-1.9529999494552612,1.0859999656677246 2.433000087738037,1.3589999675750732 2.433000087738037,1.3589999675750732 C2.434000015258789,1.3580000400543213 2.4619998931884766,1.3609999418258667 2.4760000705718994,1.3609999418258667"></path><path stroke-linecap="round" stroke-linejoin="round" fill-opacity="0" stroke="#1e90ff" stroke-opacity="1" stroke-width="1" d=" M1.694991946220398,-1.2317618131637573 C1.6099920272827148,-1.2317618131637573 -2.4690001010894775,-1.0360000133514404 -2.4690001010894775,-1.0360000133514404 C-3.072999954223633,-0.9110000133514404 -3.75600004196167,-0.25 -3.8289999961853027,0.5099999904632568 C-3.8259999752044678,0.5189999938011169 -3.8259999752044678,0.5180000066757202 -3.8359999656677246,0.5230000019073486 C-3.822000026702881,0.796999990940094 -3.6070001125335693,1.0140000581741333 -3.3329999446868896,1 C-3.3329999446868896,1 -1.9529999494552612,1.0859999656677246 -1.9529999494552612,1.0859999656677246 C-1.9529999494552612,1.0859999656677246 2.433000087738037,1.3589999675750732 2.433000087738037,1.3589999675750732 C2.434000015258789,1.3580000400543213 2.4619998931884766,1.3609999418258667 2.4760000705718994,1.3609999418258667"></path></g></g><g transform="matrix(0.41243278980255127,-0.9109880924224854,0.9109880924224854,0.41243278980255127,150.517578125,145.13214111328125)" opacity="1" style="display: block;"><g opacity="1" transform="matrix(1,0,0,1,7.241000175476074,5.673999786376953)"><path fill="rgb(255,255,255)" fill-opacity="1" d=" M-0.3536089062690735,-2.1646199226379395 C-0.9507892727851868,-0.9142213463783264 -1.5531768798828125,1.562466025352478 -1.5531768798828125,1.5644659996032715 C-1.9481768608093262,1.8024660348892212 -2.0409998893737793,2.4579999446868896 -2.0409998893737793,2.9509999752044678 C-2.0409998893737793,3.703000068664551 -1.430999994277954,4.310999870300293 -0.6800000071525574,4.310999870300293 C-0.0729999989271164,4.310999870300293 0.4350000023841858,3.9110000133514404 0.6100000143051147,3.361999988555908 C0.6110000014305115,3.361999988555908 2.6800150871276855,-0.5847179293632507 2.6766953468322754,-2.651158094406128"></path><path stroke-linecap="round" stroke-linejoin="round" fill-opacity="0" stroke="#1e90ff" stroke-opacity="1" stroke-width="1" d=" M-0.3536089062690735,-2.1646199226379395 C-0.9507892727851868,-0.9142213463783264 -1.5531768798828125,1.562466025352478 -1.5531768798828125,1.5644659996032715 C-1.9481768608093262,1.8024660348892212 -2.0409998893737793,2.4579999446868896 -2.0409998893737793,2.9509999752044678 C-2.0409998893737793,3.703000068664551 -1.430999994277954,4.310999870300293 -0.6800000071525574,4.310999870300293 C-0.0729999989271164,4.310999870300293 0.4350000023841858,3.9110000133514404 0.6100000143051147,3.361999988555908 C0.6110000014305115,3.361999988555908 2.6800150871276855,-0.5847179293632507 2.6766953468322754,-2.651158094406128"></path></g></g><g transform="matrix(0.14322027564048767,-0.989690899848938,0.989690899848938,0.14322027564048767,151.6031951904297,147.96990966796875)" opacity="1" style="display: block;"><g opacity="1" transform="matrix(1,0,0,1,4.085000038146973,8.625)"><path fill="rgb(255,255,255)" fill-opacity="1" d=" M1.941773772239685,-1.3371617794036865 C1.857773780822754,-1.3371617794036865 -2.4679999351501465,-1.0360000133514404 -2.4679999351501465,-1.0360000133514404 C-3.072000026702881,-0.9110000133514404 -3.75600004196167,-0.25099998712539673 -3.8289999961853027,0.5099999904632568 C-3.8259999752044678,0.5189999938011169 -3.8259999752044678,0.5189999938011169 -3.8350000381469727,0.5230000019073486 C-3.822000026702881,0.796999990940094 -3.6080000400543213,1.0130000114440918 -3.3329999446868896,1 C-3.3329999446868896,1 -1.9529999494552612,1.0850000381469727 -1.9529999494552612,1.0850000381469727 C-1.9529999494552612,1.0850000381469727 2.431999921798706,1.3600000143051147 2.431999921798706,1.3600000143051147 C2.433000087738037,1.3589999675750732 2.4619998931884766,1.3600000143051147 2.4760000705718994,1.3600000143051147"></path><path stroke-linecap="round" stroke-linejoin="round" fill-opacity="0" stroke="#1e90ff" stroke-opacity="1" stroke-width="1" d=" M1.941773772239685,-1.3371617794036865 C1.857773780822754,-1.3371617794036865 -2.4679999351501465,-1.0360000133514404 -2.4679999351501465,-1.0360000133514404 C-3.072000026702881,-0.9110000133514404 -3.75600004196167,-0.25099998712539673 -3.8289999961853027,0.5099999904632568 C-3.8259999752044678,0.5189999938011169 -3.8259999752044678,0.5189999938011169 -3.8350000381469727,0.5230000019073486 C-3.822000026702881,0.796999990940094 -3.6080000400543213,1.0130000114440918 -3.3329999446868896,1 C-3.3329999446868896,1 -1.9529999494552612,1.0850000381469727 -1.9529999494552612,1.0850000381469727 C-1.9529999494552612,1.0850000381469727 2.431999921798706,1.3600000143051147 2.431999921798706,1.3600000143051147 C2.433000087738037,1.3589999675750732 2.4619998931884766,1.3600000143051147 2.4760000705718994,1.3600000143051147"></path></g></g><g transform="matrix(0.5265440940856934,-0.8501477837562561,0.8501477837562561,0.5265440940856934,147.43748474121094,144.48928833007812)" opacity="1" style="display: block;"><g opacity="1" transform="matrix(1,0,0,1,7.242000102996826,5.673999786376953)"><path fill="rgb(255,255,255)" fill-opacity="1" d=" M-0.907487154006958,-0.8484105467796326 C-1.2994871139526367,0.43358945846557617 -1.3819999694824219,1.7860000133514404 -1.3819999694824219,1.7860000133514404 C-1.3819999694824219,1.7869999408721924 -1.38100004196167,1.7890000343322754 -1.38100004196167,1.7910000085830688 C-1.774999976158142,2.0290000438690186 -1.4320000410079956,4.310999870300293 -0.6809999942779541,4.310999870300293 C-0.07400000095367432,4.310999870300293 0.4339999854564667,3.9110000133514404 0.609000027179718,3.3610000610351562 C0.6100000143051147,3.361999988555908 1.693564772605896,0.9298469424247742 2.130571126937866,-1.6337196826934814"></path><path stroke-linecap="round" stroke-linejoin="round" fill-opacity="0" stroke="#1e90ff" stroke-opacity="1" stroke-width="1" d=" M-0.907487154006958,-0.8484105467796326 C-1.2994871139526367,0.43358945846557617 -1.3819999694824219,1.7860000133514404 -1.3819999694824219,1.7860000133514404 C-1.3819999694824219,1.7869999408721924 -1.38100004196167,1.7890000343322754 -1.38100004196167,1.7910000085830688 C-1.774999976158142,2.0290000438690186 -1.4320000410079956,4.310999870300293 -0.6809999942779541,4.310999870300293 C-0.07400000095367432,4.310999870300293 0.4339999854564667,3.9110000133514404 0.609000027179718,3.3610000610351562 C0.6100000143051147,3.361999988555908 1.693564772605896,0.9298469424247742 2.130571126937866,-1.6337196826934814"></path></g></g><g transform="matrix(0.3141852617263794,-0.9493616223335266,0.9493616223335266,0.3141852617263794,147.951171875,146.98472595214844)" opacity="1" style="display: block;"><g opacity="1" transform="matrix(1,0,0,1,4.085000038146973,8.62399959564209)"><path fill="rgb(255,255,255)" fill-opacity="1" d=" M2.2638375759124756,-1.216225028038025 C1.1228375434875488,-1.5292249917984009 -2.4679999351501465,-1.0360000133514404 -2.4679999351501465,-1.0360000133514404 C-3.072000026702881,-0.9110000133514404 -3.75600004196167,-0.25 -3.8289999961853027,0.5099999904632568 C-3.8259999752044678,0.5189999938011169 -3.8259999752044678,0.5189999938011169 -3.8350000381469727,0.5230000019073486 C-3.822000026702881,0.7979999780654907 -3.6080000400543213,1.0140000581741333 -3.3329999446868896,1 C-3.3329999446868896,1 -1.9529999494552612,1.0850000381469727 -1.9529999494552612,1.0850000381469727 C-1.9529999494552612,1.0850000381469727 1.5877325534820557,1.2201725244522095 2.7177324295043945,1.3421725034713745"></path><path stroke-linecap="round" stroke-linejoin="round" fill-opacity="0" stroke="#1e90ff" stroke-opacity="1" stroke-width="1" d=" M2.2638375759124756,-1.216225028038025 C1.1228375434875488,-1.5292249917984009 -2.4679999351501465,-1.0360000133514404 -2.4679999351501465,-1.0360000133514404 C-3.072000026702881,-0.9110000133514404 -3.75600004196167,-0.25 -3.8289999961853027,0.5099999904632568 C-3.8259999752044678,0.5189999938011169 -3.8259999752044678,0.5189999938011169 -3.8350000381469727,0.5230000019073486 C-3.822000026702881,0.7979999780654907 -3.6080000400543213,1.0140000581741333 -3.3329999446868896,1 C-3.3329999446868896,1 -1.9529999494552612,1.0850000381469727 -1.9529999494552612,1.0850000381469727 C-1.9529999494552612,1.0850000381469727 1.5877325534820557,1.2201725244522095 2.7177324295043945,1.3421725034713745"></path></g></g><g transform="matrix(1,0,0,1,190.75,109.7969970703125)" opacity="1" style="display: block;"><g opacity="1" transform="matrix(1,0,0,1,50.70600128173828,18.392000198364258)"><path fill="#1e90ff" fill-opacity="1" d=" M-14.314000129699707,18.142000198364258 C-14.314000129699707,18.142000198364258 -7.910999774932861,18.142000198364258 -7.910999774932861,18.142000198364258 C-7.910999774932861,18.142000198364258 14.21399974822998,-18.142000198364258 14.21399974822998,-18.142000198364258 C14.21399974822998,-18.142000198364258 8.060999870300293,-18.191999435424805 8.060999870300293,-18.191999435424805 C8.060999870300293,-18.191999435424805 -14.314000129699707,18.142000198364258 -14.314000129699707,18.142000198364258z"></path><path stroke-linecap="round" stroke-linejoin="round" fill-opacity="0" stroke="#1e90ff" stroke-opacity="1" stroke-width="1" d=" M-14.314000129699707,18.142000198364258 C-14.314000129699707,18.142000198364258 -7.910999774932861,18.142000198364258 -7.910999774932861,18.142000198364258 C-7.910999774932861,18.142000198364258 14.21399974822998,-18.142000198364258 14.21399974822998,-18.142000198364258 C14.21399974822998,-18.142000198364258 8.060999870300293,-18.191999435424805 8.060999870300293,-18.191999435424805 C8.060999870300293,-18.191999435424805 -14.314000129699707,18.142000198364258 -14.314000129699707,18.142000198364258z"></path></g><g opacity="1" transform="matrix(1,0,0,1,21.687999725341797,37.75600051879883)"><path fill="rgb(255,255,255)" fill-opacity="1" d=" M18.437999725341797,1.49399995803833 C18.437999725341797,1.49399995803833 -18.437999725341797,1.49399995803833 -18.437999725341797,1.49399995803833 C-20.094999313354492,1.49399995803833 -21.437999725341797,0.15600000321865082 -21.437999725341797,-1.49399995803833 C-21.437999725341797,-1.49399995803833 21.437999725341797,-1.49399995803833 21.437999725341797,-1.49399995803833 C21.437999725341797,0.15600000321865082 20.094999313354492,1.49399995803833 18.437999725341797,1.49399995803833z"></path><path stroke-linecap="butt" stroke-linejoin="miter" fill-opacity="0" stroke-miterlimit="4" stroke="#1e90ff" stroke-opacity="1" stroke-width="1" d=" M18.437999725341797,1.49399995803833 C18.437999725341797,1.49399995803833 -18.437999725341797,1.49399995803833 -18.437999725341797,1.49399995803833 C-20.094999313354492,1.49399995803833 -21.437999725341797,0.15600000321865082 -21.437999725341797,-1.49399995803833 C-21.437999725341797,-1.49399995803833 21.437999725341797,-1.49399995803833 21.437999725341797,-1.49399995803833 C21.437999725341797,0.15600000321865082 20.094999313354492,1.49399995803833 18.437999725341797,1.49399995803833z"></path></g><g opacity="1" transform="matrix(1,0,0,1,54.49800109863281,18.868000030517578)"><path fill="rgb(255,255,255)" fill-opacity="1" d=" M11.307000160217285,-14.505000114440918 C11.307000160217285,-14.505000114440918 -8.04699993133545,16.774999618530273 -8.04699993133545,16.774999618530273 C-8.916999816894531,18.18000030517578 -10.815999984741211,18.218000411987305 -12.22599983215332,17.350000381469727 C-12.22599983215332,17.350000381469727 10.32699966430664,-18.617000579833984 10.32699966430664,-18.617000579833984 C11.73799991607666,-17.75 12.175999641418457,-15.90999984741211 11.307000160217285,-14.505000114440918z"></path><path stroke-linecap="round" stroke-linejoin="round" fill-opacity="0" stroke="#1e90ff" stroke-opacity="1" stroke-width="1" d=" M11.307000160217285,-14.505000114440918 C11.307000160217285,-14.505000114440918 -8.04699993133545,16.774999618530273 -8.04699993133545,16.774999618530273 C-8.916999816894531,18.18000030517578 -10.815999984741211,18.218000411987305 -12.22599983215332,17.350000381469727 C-12.22599983215332,17.350000381469727 10.32699966430664,-18.617000579833984 10.32699966430664,-18.617000579833984 C11.73799991607666,-17.75 12.175999641418457,-15.90999984741211 11.307000160217285,-14.505000114440918z"></path></g></g></g></svg>


